<?xml version="1.0" standalone="no"?>
<!DOCTYPE svg PUBLIC "-//W3C//DTD SVG 20010904//EN"
 "http://www.w3.org/TR/2001/REC-SVG-20010904/DTD/svg10.dtd">
<svg version="1.0" xmlns="http://www.w3.org/2000/svg"
 width="400.000000pt" height="318.000000pt" viewBox="0 0 400.000000 318.000000"
 preserveAspectRatio="xMidYMid meet">

<g transform="translate(0.000000,318.000000) scale(0.100000,-0.100000)"
fill="#000000" stroke="none">
<path d="M2146 2953 c-39 -3 -68 -11 -84 -24 -28 -21 -94 -27 -89 -6 2 14 -75
14 -263 0 -63 -5 -122 -6 -130 -2 -8 4 -62 2 -119 -4 -77 -7 -116 -7 -148 1
-74 20 -110 16 -130 -15 -27 -42 -37 -51 -100 -84 -110 -58 -247 -187 -349
-329 -23 -32 -44 -49 -62 -53 -23 -5 -31 -14 -40 -45 -7 -22 -12 -50 -12 -63
0 -13 -18 -64 -39 -114 -66 -149 -121 -374 -121 -492 0 -18 -4 -33 -9 -33 -5
0 -12 -30 -16 -66 -6 -54 -4 -69 10 -84 11 -12 23 -54 31 -107 25 -167 97
-365 186 -507 17 -28 31 -61 30 -73 -2 -30 35 -110 54 -117 9 -3 23 -6 32 -6
9 0 78 -65 152 -144 74 -79 149 -151 167 -160 17 -9 55 -16 84 -16 59 0 179
-19 194 -30 6 -4 43 -13 83 -20 76 -12 102 -6 102 26 0 18 5 18 127 -8 94 -19
103 -23 103 -44 0 -18 9 -25 48 -37 73 -24 152 -38 165 -30 20 12 61 2 85 -20
20 -19 38 -22 122 -25 l97 -4 5 30 c4 28 2 31 -31 35 -43 5 -58 1 -65 -19 -4
-11 -1 -14 14 -10 11 3 29 9 40 12 15 4 20 1 20 -13 0 -16 -8 -18 -82 -15 -66
3 -88 8 -105 24 -18 17 -38 20 -120 23 -126 4 -173 21 -173 64 0 22 5 31 16
31 11 0 15 -6 11 -19 -3 -11 1 -22 8 -25 7 -2 15 4 18 15 3 12 14 19 28 19 19
0 14 7 -29 36 -77 52 -171 148 -230 236 -29 42 -52 80 -52 83 0 3 18 5 40 5
37 0 42 -4 79 -58 81 -120 222 -251 344 -321 31 -18 59 -40 62 -50 4 -13 12
-17 31 -13 15 3 29 -1 34 -8 10 -16 30 -4 30 17 0 12 9 14 48 9 26 -4 53 -2
61 3 15 10 -6 17 -113 41 -62 14 -158 70 -261 153 -115 94 -245 250 -245 297
0 24 -36 90 -50 90 -13 0 -68 147 -95 252 -33 132 -51 303 -35 333 8 15 10 38
5 66 -26 155 23 428 117 657 16 39 33 72 38 72 14 0 60 76 60 101 0 33 115
184 200 261 38 34 97 79 132 100 35 21 68 42 75 48 7 5 20 10 30 10 26 0 98
46 85 54 -6 4 -25 0 -41 -9 -43 -21 -51 -19 -51 15 0 32 -17 41 -27 14 -4 -12
-14 -14 -35 -10 -25 5 -28 3 -24 -12 4 -13 -9 -29 -52 -59 -31 -24 -97 -84
-147 -135 -49 -51 -65 -70 -35 -42 77 71 154 133 233 187 64 44 67 45 67 23 0
-17 -7 -26 -24 -30 -79 -20 -272 -190 -352 -311 -20 -30 -40 -55 -44 -55 -15
0 -19 14 -8 29 9 12 7 11 -8 -2 -12 -10 -28 -15 -37 -11 -9 3 -30 1 -47 -4
-16 -6 -30 -8 -30 -4 1 35 311 371 343 372 7 0 21 7 31 15 16 12 17 17 6 30
-17 20 -30 19 -30 -4 0 -10 -9 -21 -20 -24 -17 -4 -20 0 -20 29 0 42 24 54
105 54 44 0 56 4 65 20 8 15 21 20 51 20 24 0 38 -4 34 -10 -9 -14 7 -12 29 5
25 19 36 11 36 -26 0 -19 -5 -29 -15 -29 -8 0 -15 5 -15 10 0 6 -4 10 -10 10
-16 0 -12 -30 5 -37 18 -6 55 23 55 44 0 7 12 14 28 14 27 2 27 2 2 6 -14 3
-29 11 -33 19 -4 8 -13 13 -20 12 -7 -1 -39 -3 -71 -5z m-223 -48 c-30 -13
-33 -18 -34 -57 0 -39 -5 -47 -47 -82 -101 -83 -282 -308 -286 -354 -1 -11 8
-18 22 -20 12 -2 22 1 22 7 0 6 14 11 30 11 31 0 37 -8 21 -26 -6 -5 -4 -17 6
-29 15 -20 15 -20 10 3 -3 13 1 29 10 38 39 39 58 -29 21 -76 -25 -32 -53 -39
-62 -15 -3 8 -18 15 -34 15 -15 0 -32 4 -37 9 -6 6 -30 11 -55 13 -32 2 -45 7
-45 18 0 12 13 15 62 14 53 -1 59 1 40 10 -12 7 -43 10 -69 8 -47 -4 -48 -5
-48 -38 0 -23 -6 -37 -19 -44 -29 -15 -37 -13 -68 19 -36 36 -69 47 -76 27 -4
-9 -1 -13 6 -11 7 3 19 1 27 -5 12 -7 12 -12 3 -21 -10 -10 -18 -10 -37 -1
-28 13 -62 59 -51 70 4 4 42 7 86 6 43 -1 76 3 73 7 -3 5 -41 9 -84 9 -65 0
-81 -3 -89 -17 -10 -17 -10 -17 -11 -1 0 11 10 20 26 24 26 7 175 0 244 -11
34 -5 36 -4 85 72 89 138 210 270 294 322 9 6 10 13 3 27 -6 11 -13 27 -16 37
-7 22 -26 13 -26 -13 0 -10 -4 -22 -10 -25 -6 -4 -10 10 -10 35 0 49 17 59
100 59 l55 0 -32 -14z m-623 -15 c0 -17 -7 -20 -50 -20 -43 0 -50 3 -50 20 0
17 7 20 50 20 43 0 50 -3 50 -20z m288 8 c17 -17 15 -58 -2 -58 -8 0 -17 6
-19 13 -3 7 -6 5 -6 -5 -2 -31 -31 -21 -31 10 0 29 16 52 35 52 6 0 16 -5 23
-12z m-173 -8 c4 -6 -7 -15 -24 -21 -134 -47 -293 -151 -408 -267 -42 -42 -80
-76 -85 -75 -4 2 -24 -19 -45 -47 -36 -48 -38 -49 -77 -43 -23 3 -42 7 -43 7
-1 1 26 38 60 82 85 106 209 221 286 264 35 19 72 43 82 53 14 12 36 17 79 17
49 0 61 3 70 20 8 15 21 20 55 20 24 0 47 -5 50 -10z m93 -27 c1 -34 0 -36
-12 -20 -16 21 -26 22 -26 2 0 -8 -9 -15 -20 -15 -13 0 -20 7 -20 19 0 38 11
51 44 51 31 0 33 -2 34 -37z m109 -10 c-3 -10 -5 -4 -5 12 0 17 2 24 5 18 2
-7 2 -21 0 -30z m196 -46 c31 -4 31 -4 -5 -5 -38 -2 -38 -2 -36 36 1 36 1 36
5 5 4 -27 9 -32 36 -36z m-396 27 c-3 -3 -12 -4 -19 -1 -8 3 -5 6 6 6 11 1 17
-2 13 -5z m-111 -45 c-151 -77 -262 -166 -357 -286 -41 -51 -49 -67 -38 -74
10 -6 6 -9 -14 -9 -33 0 -33 1 35 87 90 115 239 232 372 294 91 42 92 34 2
-12z m189 31 c3 -5 -1 -10 -10 -10 -9 0 -13 5 -10 10 3 6 8 10 10 10 2 0 7 -4
10 -10z m110 1 c-6 -5 -26 -11 -45 -15 -35 -5 -35 -5 5 9 50 17 51 17 40 6z
m-741 -360 c-20 -29 -39 -50 -41 -47 -3 3 11 28 32 56 21 28 39 49 42 46 2 -2
-12 -27 -33 -55z m227 -54 c21 -13 25 -56 9 -87 -11 -21 -63 -36 -82 -23 -7 4
-38 6 -68 5 -52 -3 -56 -2 -73 27 -10 17 -23 29 -28 25 -18 -11 -80 -146 -114
-247 -46 -140 -66 -242 -72 -379 l-6 -118 27 0 c15 0 40 10 56 22 25 18 34 20
62 10 l33 -11 -37 6 c-29 4 -40 1 -54 -16 -13 -15 -30 -21 -58 -21 l-39 0 6
133 c8 151 24 241 68 379 33 104 107 260 125 265 6 2 21 -12 32 -32 19 -30 26
-35 60 -35 21 0 43 5 50 12 9 9 15 9 24 0 19 -19 66 -15 78 7 29 54 7 75 -95
91 l-60 9 68 -5 c38 -2 77 -10 88 -17z m-311 -2 c0 -9 -7 -18 -15 -21 -8 -4
-15 -12 -15 -20 0 -10 -15 -14 -56 -14 -34 0 -53 4 -49 10 3 6 15 10 25 10 27
0 36 20 11 27 -37 10 -11 23 45 23 42 0 54 -3 54 -15z m238 -25 c26 -35 49
-41 32 -9 -15 27 -9 32 18 13 21 -15 20 -41 -2 -56 -21 -14 -35 -8 -56 27 -19
31 -26 35 -66 35 -37 0 -44 -3 -44 -20 0 -17 7 -20 40 -20 40 0 53 -13 24 -24
-33 -13 -54 -5 -69 25 -25 46 -14 59 48 59 48 0 56 -3 75 -30z m-263 -113
c-79 -168 -121 -348 -132 -559 -5 -89 -9 -118 -20 -118 -10 0 -13 20 -13 84 0
155 32 324 92 481 31 81 111 231 116 216 1 -4 -18 -51 -43 -104z m570 32 c32
11 39 11 55 -4 21 -19 49 -14 75 15 20 22 50 27 42 8 -100 -228 -157 -461
-157 -638 0 -43 -3 -85 -6 -94 -6 -17 -59 -23 -68 -8 -3 5 8 7 23 4 l28 -4 6
124 c10 193 53 399 112 534 l23 51 -34 -10 c-28 -8 -37 -7 -53 7 -15 14 -24
15 -40 7 -11 -6 -26 -11 -35 -11 -17 0 -86 62 -86 78 0 6 18 -8 39 -31 39 -41
39 -42 76 -28z m-585 20 c0 -7 -9 -26 -19 -43 -59 -96 -123 -308 -142 -475
l-12 -111 -39 0 -38 0 0 53 c0 71 26 213 57 310 32 102 99 258 116 269 19 12
77 9 77 -3z m856 -21 c35 -3 39 -6 38 -28 -1 -14 -19 -68 -39 -120 -51 -129
-93 -300 -107 -437 l-12 -113 -58 0 -58 0 0 49 c0 151 53 408 116 560 52 125
54 128 68 109 7 -9 30 -18 52 -20z m-1043 -638 c10 0 17 -8 17 -20 0 -13 -7
-20 -19 -20 -17 0 -31 -18 -31 -41 0 -5 9 -9 19 -9 10 0 21 -7 25 -15 4 -12
-5 -15 -48 -15 l-53 0 -6 57 c-3 31 -3 61 0 66 3 5 22 7 42 3 20 -3 44 -6 54
-6z m337 -30 c25 -25 27 -82 3 -101 -15 -11 -16 -11 -5 1 6 8 12 29 12 47 0
27 -6 37 -32 53 -22 13 -27 20 -15 20 9 0 26 -9 37 -20z m-90 -20 c0 -5 -9
-10 -20 -10 -11 0 -20 5 -20 10 0 6 9 10 20 10 11 0 20 -4 20 -10z m82 -16
c11 -23 10 -29 -11 -45 -28 -22 -51 -11 -51 25 0 47 44 61 62 20z m338 7 l35
-9 -31 -1 c-18 0 -47 6 -65 14 -34 16 -34 16 -4 10 17 -3 46 -10 65 -14z
m-653 3 c-3 -3 -12 -4 -19 -1 -8 3 -5 6 6 6 11 1 17 -2 13 -5z m538 -14 c-10
-11 -21 -17 -24 -14 -3 3 3 12 13 20 28 20 32 17 11 -6z m-297 -12 c-6 -16
-58 -22 -115 -13 -67 10 -40 25 43 25 56 0 75 -3 72 -12z m362 -28 c0 -40 -13
-53 -24 -25 -4 11 -21 15 -61 15 -30 0 -55 5 -55 10 0 6 27 10 60 10 47 0 60
3 60 15 0 8 5 15 10 15 6 0 10 -18 10 -40z m327 26 c5 -9 7 -33 5 -55 -4 -43
-17 -51 -84 -51 -30 0 -40 5 -55 30 -19 33 -37 40 -29 13 2 -10 8 -56 11 -103
4 -47 13 -116 21 -153 15 -73 18 -125 3 -67 -12 48 -36 193 -44 263 -6 55 -7
57 -36 57 -22 0 -29 5 -29 19 0 28 9 31 73 24 52 -5 57 -8 57 -29 0 -21 5 -24
35 -24 28 0 36 4 41 24 9 37 -2 46 -57 46 -72 0 -60 14 15 18 50 2 66 -1 73
-12z m-872 -73 c25 -252 94 -479 195 -640 22 -35 40 -66 40 -68 0 -2 -14 11
-32 28 -94 95 -213 433 -234 670 -6 66 -5 77 9 77 12 0 17 -16 22 -67z m625
43 c0 -30 -13 -40 -40 -31 -13 4 -20 15 -20 31 0 20 5 24 30 24 25 0 30 -4 30
-24z m-510 -4 c0 -5 10 -14 23 -20 16 -8 17 -11 6 -11 -9 -1 -22 6 -29 14 -13
15 -80 21 -80 8 2 -62 43 -263 76 -368 32 -105 157 -357 162 -330 3 11 9 23
16 27 16 11 74 10 80 -1 4 -5 -11 -7 -33 -4 -38 5 -41 4 -54 -28 l-14 -34 -25
41 c-109 171 -190 419 -213 647 l-7 67 46 0 c25 0 46 -4 46 -8z m60 -2 c0 -5
-6 -10 -14 -10 -8 0 -18 5 -21 10 -3 6 3 10 14 10 12 0 21 -4 21 -10z m650
-11 c0 -15 -5 -20 -22 -17 -34 5 -37 38 -4 38 20 0 26 -5 26 -21z m-880 -5 c0
-36 36 -239 55 -310 29 -107 84 -248 126 -321 45 -79 10 -70 -42 10 -103 159
-185 380 -213 574 -5 34 -3 42 11 46 28 7 63 8 63 1z m297 -10 c-3 -3 -12 -4
-19 -1 -8 3 -5 6 6 6 11 1 17 -2 13 -5z m333 -20 l75 5 -60 -10 c-84 -14 -96
-13 -119 12 l-21 22 25 -17 c20 -13 41 -15 100 -12z m-63 20 c-3 -3 -12 -4
-19 -1 -8 3 -5 6 6 6 11 1 17 -2 13 -5z m347 -137 c12 -153 48 -305 104 -444
27 -67 13 -69 -18 -3 -29 63 -37 59 -12 -6 l20 -49 -32 -10 c-31 -10 -31 -10
-54 45 -56 133 -122 413 -122 514 l0 41 54 -3 53 -4 7 -81z m-87 -279 c-3 -8
-6 -5 -6 6 -1 11 2 17 5 13 3 -3 4 -12 1 -19z m-59 -220 c9 -9 15 -9 24 0 14
14 32 16 23 2 -15 -24 -40 -28 -64 -9 -14 12 -18 19 -9 19 8 0 19 -5 26 -12z
m116 -19 c25 -30 29 -31 80 -25 34 5 60 14 72 27 9 10 21 19 25 19 14 0 50
-70 47 -92 -4 -30 -29 -29 -44 0 -8 15 -14 20 -19 12 -4 -6 -1 -17 5 -25 10
-13 8 -15 -13 -15 -14 0 -27 5 -29 12 -2 6 -31 13 -67 16 l-62 4 6 29 c6 25 2
31 -27 49 -20 12 -26 20 -16 20 9 0 28 -14 42 -31z m-193 -16 c-37 -45 -39
-70 -8 -84 27 -12 142 1 140 16 -1 6 3 15 8 22 16 19 -11 27 -29 9 -15 -15
-15 -18 -2 -26 10 -7 -6 -10 -52 -10 -59 0 -68 2 -68 18 0 23 55 76 69 68 18
-11 13 -26 -9 -26 -24 0 -27 -18 -4 -27 10 -3 29 8 54 32 33 32 41 35 59 26
15 -8 21 -22 23 -46 0 -19 1 -41 2 -47 1 -19 -171 -33 -201 -17 -32 17 -29 51
8 94 41 47 49 45 10 -2z m-169 10 c41 -47 44 -87 7 -98 -10 -3 -29 -8 -40 -11
-14 -4 -19 -2 -15 5 4 6 18 11 30 11 37 0 47 20 30 57 -17 34 -57 51 -80 32
-14 -11 -20 1 -7 14 13 13 60 7 75 -10z m-98 -22 c8 -12 -18 -21 -42 -14 -14
3 -22 -1 -25 -14 -3 -12 -5 -9 -6 10 -1 24 2 27 33 27 19 0 37 -4 40 -9z m97
-18 c7 -19 7 -28 -3 -34 -18 -11 -27 -2 -21 21 3 11 0 20 -6 20 -6 0 -14 -13
-17 -30 -6 -29 -9 -30 -60 -30 -30 0 -54 5 -54 10 0 6 20 10 44 10 41 0 45 2
51 30 9 41 51 43 66 3z m-273 -26 l22 -32 -41 -3 c-40 -3 -66 6 -41 15 19 7
14 21 -10 25 -40 6 -33 28 9 28 31 0 42 -6 61 -33z m860 -250 c37 -44 34 -42
-20 14 -56 59 -138 184 -138 212 0 5 26 -31 58 -82 31 -50 76 -115 100 -144z
m-701 125 c95 -96 187 -157 293 -195 49 -17 66 -28 68 -44 3 -19 1 -20 -50
-11 -29 5 -62 18 -73 28 -11 10 -52 23 -93 31 -50 8 -76 18 -80 28 -3 9 -50
63 -105 119 -108 112 -105 104 -50 131 1 1 42 -39 90 -87z m-6 68 c-7 -4 13
-32 52 -73 35 -36 56 -62 47 -57 -21 11 -130 128 -130 140 0 4 9 6 21 3 12 -4
16 -8 10 -13z m867 -167 c80 -78 182 -152 275 -199 64 -33 85 -54 52 -54 -8 0
-15 5 -15 10 0 6 -10 10 -22 10 -37 0 -177 97 -266 184 -85 82 -182 203 -182
226 0 7 21 -16 46 -50 25 -34 75 -91 112 -127z m-636 -119 c35 -22 -37 -33
-86 -14 -47 17 -31 33 26 26 28 -4 55 -9 60 -12z m198 -9 c0 -18 12 -19 28 -3
9 9 12 5 12 -20 0 -35 -10 -39 -54 -22 -33 12 -38 60 -6 60 11 0 20 -7 20 -15z
m100 -24 c0 -13 2 -13 9 -2 11 17 41 7 41 -14 0 -23 -46 -38 -70 -22 -19 11
-27 47 -14 60 10 10 34 -5 34 -22z"/>
<path d="M1370 2372 c0 -5 9 -12 21 -15 13 -3 19 -1 16 6 -5 15 -37 22 -37 9z"/>
<path d="M1556 2165 c-9 -26 -7 -32 5 -12 6 10 9 21 6 23 -2 3 -7 -2 -11 -11z"/>
<path d="M474 1602 c1 -32 21 -28 23 5 2 28 2 28 -6 -2 -8 -30 -8 -30 -13 -5
-4 22 -5 22 -4 2z"/>
<path d="M1611 844 c0 -11 3 -14 6 -6 3 7 2 16 -1 19 -3 4 -6 -2 -5 -13z"/>
<path d="M2550 2924 c157 -16 223 -32 228 -57 3 -15 0 -16 -25 -6 -88 34 -284
49 -378 30 -31 -7 -17 -9 67 -10 266 -3 473 -91 645 -275 161 -173 267 -411
309 -698 22 -150 15 -449 -14 -588 -61 -290 -172 -507 -357 -698 -173 -180
-351 -271 -601 -307 l-99 -14 125 3 c134 4 201 21 320 81 306 155 553 502 639
896 77 357 30 771 -122 1074 -86 173 -215 327 -342 409 -33 22 -62 41 -64 43
-3 2 0 8 6 14 15 15 41 5 125 -50 86 -57 183 -151 244 -237 37 -51 43 -66 35
-85 -13 -34 33 -119 64 -119 17 0 26 -15 52 -87 54 -148 82 -278 97 -445 6
-57 4 -68 -9 -68 -17 0 -21 -35 -4 -45 6 -4 8 -22 4 -45 -4 -23 -2 -41 4 -44
28 -18 -25 -331 -86 -503 l-25 -72 21 -27 c28 -35 27 -45 -11 -104 -37 -55
-47 -59 -73 -30 -22 24 -37 26 -28 4 16 -42 -193 -290 -327 -388 -36 -27 -65
-53 -65 -60 0 -12 -52 -45 -72 -46 -25 0 -13 16 23 34 20 9 34 19 31 22 -7 7
-87 -34 -87 -45 0 -5 -23 -18 -50 -29 -93 -39 -202 -64 -309 -71 l-106 -7 59
-8 c82 -12 209 -1 286 24 74 25 129 31 147 18 21 -17 58 -5 61 20 2 12 12 27
23 33 12 6 18 17 15 24 -3 9 20 31 61 61 93 66 206 183 283 292 40 57 71 91
80 89 20 -3 90 94 90 125 0 13 -5 29 -11 35 -8 8 -2 39 24 115 38 109 71 259
82 370 6 52 12 72 31 89 34 32 34 116 0 148 -19 18 -25 36 -31 99 -14 159 -53
322 -115 482 -16 41 -34 94 -40 118 -7 27 -26 57 -49 80 -20 20 -58 64 -83 97
-78 103 -221 225 -311 266 -15 7 -27 18 -27 24 0 7 -22 24 -49 38 -48 27 -50
27 -247 26 l-199 -1 135 -14z m308 -24 c35 -21 40 -41 17 -60 -27 -22 -72 5
-77 46 -5 41 10 44 60 14z m503 -493 c10 -26 17 -47 15 -47 -3 0 -11 -3 -20
-6 -22 -8 -62 72 -45 92 18 22 30 13 50 -39z m187 -714 c5 -10 12 -37 15 -61
4 -36 3 -42 -10 -38 -8 3 -23 6 -34 6 -10 0 -19 7 -19 15 0 8 5 15 10 15 6 0
10 11 10 25 0 14 -4 25 -10 25 -5 0 -10 7 -10 15 0 21 37 19 48 -2z m-638
-1310 c0 -14 -48 -53 -64 -53 -27 0 -18 26 17 43 37 18 47 20 47 10z"/>
<path d="M1764 2528 l-19 -23 23 19 c21 18 27 26 19 26 -2 0 -12 -10 -23 -22z"/>
<path d="M3036 1758 c-44 -151 -90 -330 -162 -625 -43 -178 -81 -323 -84 -323
-6 0 -24 68 -125 485 -52 217 -77 311 -131 493 -2 6 -8 12 -15 12 -6 0 -8 -7
-5 -15 3 -9 19 -86 36 -173 17 -86 38 -184 46 -217 8 -33 52 -211 97 -395 65
-266 86 -335 99 -338 20 -4 11 -35 128 448 114 470 152 654 141 683 -7 19 -11
13 -25 -35z"/>
<path d="M3337 944 c-10 -20 -16 -39 -13 -41 3 -3 13 11 22 31 10 20 21 36 25
36 16 0 18 -35 3 -57 -8 -14 -13 -27 -11 -30 10 -10 38 46 35 69 -5 39 -41 35
-61 -8z"/>
<path d="M1938 769 c-29 -17 -22 -47 13 -54 24 -5 30 -11 26 -26 -7 -24 9 -25
22 -1 13 24 -4 42 -36 42 -27 0 -31 24 -5 39 9 6 13 10 7 10 -5 0 -18 -4 -27
-10z"/>
<path d="M1985 760 c3 -5 8 -10 11 -10 2 0 4 5 4 10 0 6 -5 10 -11 10 -5 0 -7
-4 -4 -10z"/>
<path d="M2020 759 c0 -5 5 -7 10 -4 6 3 10 8 10 11 0 2 -4 4 -10 4 -5 0 -10
-5 -10 -11z"/>
<path d="M2068 720 c5 -67 27 -67 27 0 0 38 -4 50 -15 50 -12 0 -14 -11 -12
-50z"/>
<path d="M2167 728 c7 -53 14 -61 54 -61 38 0 49 16 47 68 l-1 40 -6 -45 c-6
-42 -8 -45 -36 -45 -28 0 -30 3 -33 43 -2 27 -8 42 -17 42 -10 0 -12 -11 -8
-42z"/>
<path d="M2310 720 c0 -38 4 -50 15 -50 11 0 15 12 15 50 0 38 -4 50 -15 50
-11 0 -15 -12 -15 -50z"/>
<path d="M2398 758 c19 -19 14 -55 -10 -72 -15 -11 -17 -16 -8 -16 8 0 20 4
26 8 11 7 34 45 34 56 0 9 -32 36 -43 36 -8 0 -7 -4 1 -12z"/>
<path d="M2470 720 c0 -38 4 -50 15 -50 11 0 15 12 15 50 0 38 -4 50 -15 50
-11 0 -15 -12 -15 -50z"/>
<path d="M2546 754 c-9 -8 -16 -24 -16 -34 0 -21 25 -50 43 -50 8 0 7 4 -1 12
-7 7 -12 24 -12 38 0 14 5 31 12 38 8 8 9 12 1 12 -6 0 -19 -7 -27 -16z"/>
<path d="M2628 758 c16 -16 15 -60 0 -77 -11 -11 -10 -13 2 -9 8 3 22 16 30
31 13 23 13 28 -4 46 -11 12 -24 21 -30 21 -6 0 -5 -5 2 -12z"/>
<path d="M1912 335 c0 -16 2 -22 5 -12 2 9 2 23 0 30 -3 6 -5 -1 -5 -18z"/>
<path d="M1960 330 c0 -6 7 -10 15 -10 8 0 15 2 15 4 0 2 -7 6 -15 10 -8 3
-15 1 -15 -4z"/>
</g>
</svg>
