<?xml version="1.0" encoding="utf-8"?>
<!-- Generator: Adobe Illustrator 26.1.0, SVG Export Plug-In . SVG Version: 6.00 Build 0)  -->
<svg version="1.1" id="Слой_1" xmlns="http://www.w3.org/2000/svg" xmlns:xlink="http://www.w3.org/1999/xlink" x="0px" y="0px"
	 viewBox="0 0 841.89 595.28" style="enable-background:new 0 0 841.89 595.28;" xml:space="preserve">
<style type="text/css">
	.st0{fill:#EE7C00;}
	.st1{fill:#000404;}
	.st2{fill-rule:evenodd;clip-rule:evenodd;fill:#000404;}
	.st3{fill-rule:evenodd;clip-rule:evenodd;fill:#EE7C00;}
	.st4{fill-rule:evenodd;clip-rule:evenodd;}
	.st5{fill-rule:evenodd;clip-rule:evenodd;fill:#FFFFFF;}
</style>
<path class="st0" d="M546.17,403.72c0-4.96-1.18-8.9-3.57-11.81c-2.39-2.92-5.87-4.37-10.46-4.37c-6.08,0-10.09,2.28-12.08,6.85
	c-1.01,2.34-1.53,4.97-1.53,7.87c0,5.29,1.16,9.46,3.49,12.52c2.41,3.16,6.01,4.75,10.82,4.75c5.83,0,9.74-2.4,11.74-7.21
	C545.64,409.77,546.17,406.9,546.17,403.72 M555.61,402.39c0,6.31-2.2,11.26-6.59,14.85c-4.27,3.49-10.11,5.24-17.5,5.24
	c-6.99,0-12.47-1.65-16.45-4.94c-3.99-3.29-5.98-7.87-5.98-13.74c0-8.22,3.76-13.92,11.26-17.09c3.41-1.44,7.6-2.15,12.59-2.15
	c7.12,0,12.68,1.56,16.64,4.69C553.59,392.43,555.61,396.81,555.61,402.39z M503.73,421.24l-0.28,0.26
	c-2.04-0.11-5.2-0.16-9.47-0.16c-4.25,0-7.4,0.05-9.44,0.16l-0.28-0.26v-1.72l0.31-0.25c2.08-0.11,3.27-0.19,3.58-0.26
	c0.6-0.13,0.94-0.45,1.05-0.95c0.26-1.23,0.4-3.88,0.4-7.95v-13.57c0-4.07-0.14-6.73-0.4-7.95c-0.1-0.5-0.45-0.81-1.05-0.95
	c-0.3-0.06-1.5-0.15-3.58-0.25l-0.31-0.25v-1.74l0.31-0.24c1.96,0.11,5.1,0.16,9.44,0.16c4.31,0,7.45-0.05,9.4-0.16l0.31,0.24v1.74
	l-0.31,0.25c-2.08,0.1-3.27,0.19-3.58,0.25c-0.6,0.14-0.94,0.46-1.05,0.95c-0.26,1.23-0.4,3.88-0.4,7.95v13.57
	c0,4.07,0.14,6.72,0.4,7.95c0.1,0.5,0.45,0.81,1.05,0.95c0.3,0.07,1.5,0.16,3.58,0.26l0.31,0.25V421.24z M469.5,402.41
	c0-4.74-1.37-8.38-4.11-10.93c-1.43-1.34-3.22-2.28-5.37-2.82c-2.04-0.52-4.9-0.77-8.55-0.77c-1.9,0-3.72,0.1-5.46,0.33
	c-0.2,1.91-0.3,6.55-0.3,13.91l0.06,11.21c0.02,2.5,0.1,4.15,0.24,4.97c1.8,0.25,3.64,0.36,5.52,0.36c4.06,0,7.27-0.49,9.62-1.49
	c2.53-1.08,4.54-2.91,6.04-5.49C468.73,409.03,469.5,405.93,469.5,402.41z M478.9,401.18c0,5.8-2.26,10.61-6.77,14.42
	c-2.21,1.87-4.89,3.31-8.03,4.34c-3.37,1.11-7.3,1.63-11.8,1.57l-10.82-0.16c-2.94-0.04-5.38,0.02-7.29,0.16l-0.31-0.26v-0.72
	l0.16-0.31c1.51-0.81,2.33-1.3,2.45-1.51c0.19-0.31,0.3-1.45,0.34-3.41l0.08-5.75v-13.01c0-4.07-0.13-6.73-0.4-7.95
	c-0.1-0.5-0.45-0.81-1.04-0.95c-0.31-0.06-1.51-0.15-3.59-0.25l-0.3-0.25v-1.74l0.3-0.24c2.17,0.11,4.23,0.16,6.19,0.16
	c4.76,0,9.05-0.05,12.87-0.16c1.9-0.05,3.81-0.08,5.73-0.08c5.31,0,9.38,0.51,12.23,1.52c3.11,1.11,5.53,2.86,7.29,5.24
	C478,394.26,478.9,397.38,478.9,401.18z M428,387.12l-0.31,0.25c-2.41,0-3.77,0.54-4.07,1.62c-0.17,0.6-0.29,1.89-0.37,3.9
	c-0.06,1.49-0.09,3.63-0.09,6.44v7.91c0,5.08-1.19,8.71-3.59,10.88c-3.17,2.87-7.68,4.31-13.55,4.31c-5.36,0-9.53-0.74-12.53-2.23
	c-2.53-1.26-4.18-3.06-4.97-5.39c-0.49-1.49-0.73-5.37-0.73-11.65v-6.62c0-4.07-0.14-6.73-0.4-7.95c-0.1-0.5-0.45-0.81-1.05-0.95
	c-0.3-0.06-1.5-0.15-3.58-0.25l-0.31-0.25v-1.72l0.31-0.26c1.96,0.11,5.1,0.16,9.44,0.16c4.41,0,7.55-0.05,9.4-0.16l0.31,0.26v1.72
	l-0.31,0.25c-2.08,0.1-3.27,0.19-3.58,0.25c-0.6,0.14-0.94,0.46-1.05,0.95c-0.26,1.23-0.4,3.88-0.4,7.95v5.29
	c0,6.46,0.34,10.42,1.04,11.88c1.39,2.87,4.81,4.31,10.27,4.31c3.58,0,6.36-0.74,8.37-2.21c0.94-0.7,1.59-1.41,1.96-2.13
	c0.37-0.72,0.66-1.83,0.86-3.34c0.19-1.4,0.28-2.82,0.28-4.26v-5.34c0-4.48-0.02-7.54-0.06-9.18c-0.04-1.54-0.17-2.54-0.37-3
	c-0.17-0.34-0.52-0.61-1.08-0.8c-0.47-0.16-1.73-0.28-3.77-0.39l-0.31-0.25v-1.72l0.31-0.26c1.78,0.11,3.6,0.16,5.48,0.16
	c1.41,0,4.12-0.05,8.12-0.16l0.31,0.26V387.12z M379.55,385.3c-0.25,1.26-0.38,2.57-0.4,3.92l-0.06,4.28l-0.3,0.26h-1.94l-0.33-0.24
	c-0.1-2.19-0.22-3.47-0.33-3.84c-0.25-0.68-0.9-1.09-1.97-1.21c-0.41-0.05-2.33-0.08-5.76-0.08h-4.1c-0.04,0.6-0.06,2.98-0.06,7.14
	v14.57c0,4.07,0.14,6.72,0.4,7.95c0.1,0.5,0.45,0.81,1.05,0.95c0.3,0.07,1.5,0.16,3.58,0.26l0.31,0.25v1.72l-0.31,0.26
	c-2.02-0.11-5.17-0.16-9.44-0.16c-4.37,0-7.52,0.05-9.44,0.16l-0.28-0.24v-1.74l0.31-0.25c2.08-0.11,3.27-0.19,3.58-0.26
	c0.6-0.13,0.94-0.45,1.05-0.95c0.26-1.23,0.4-3.88,0.4-7.95v-14.57c0-4.23-0.03-6.6-0.09-7.14h-4.38c-3.65,0-5.79,0.1-6.4,0.29
	c-0.32,0.1-0.55,0.23-0.67,0.38c-0.19,0.28-0.35,0.82-0.46,1.65c-0.15,0.9-0.24,1.84-0.28,2.79l-0.3,0.26h-1.94l-0.33-0.26
	l-0.06-4.39c-0.02-1.23-0.14-2.5-0.37-3.82l0.28-0.26c1.2,0.17,5.6,0.26,13.17,0.26h12.42c6.99,0,11.38-0.09,13.18-0.26
	L379.55,385.3z M335.66,409.49c0,2.83-0.96,5.32-2.89,7.47c-1.67,1.9-3.87,3.31-6.59,4.23c-2.49,0.86-5.46,1.29-8.91,1.29
	c-4.29,0-8.5-0.82-12.63-2.46l-0.37-0.57c0.57-1.96,0.86-4.76,0.86-8.39l0.3-0.25h1.96l0.28,0.25v0.6c0,0.95,0.13,2.22,0.37,3.79
	c0.73,1.09,2.05,2.04,3.95,2.82c1.98,0.82,4.05,1.23,6.19,1.23c4.04,0,6.84-1.18,8.39-3.54c0.81-1.22,1.2-2.47,1.2-3.77
	c0-2.19-1.1-3.76-3.28-4.69c-1.08-0.46-2.82-0.85-5.24-1.16c-5.45-0.7-9.04-1.59-10.75-2.65c-2.59-1.6-3.89-4.09-3.89-7.46
	c0-3.51,1.41-6.31,4.23-8.39c2.98-2.19,7.13-3.28,12.45-3.28c4.78,0,8.64,0.64,11.58,1.93l0.21,0.61c-0.48,2.03-0.78,4.48-0.88,7.34
	l-0.35,0.25h-1.92l-0.31-0.25c-0.05-2.06-0.16-3.39-0.3-4c-0.63-0.81-1.74-1.49-3.31-2.06c-1.67-0.58-3.42-0.87-5.24-0.87
	c-2.74,0-4.91,0.6-6.5,1.82c-1.5,1.15-2.24,2.63-2.24,4.44c0,1.96,0.85,3.41,2.54,4.33c1.1,0.6,3.7,1.16,7.81,1.72
	c0.43,0.05,1.62,0.22,3.59,0.52c1.2,0.17,2.31,0.41,3.34,0.74c2.06,0.66,3.62,1.65,4.65,2.98
	C335.1,405.5,335.66,407.32,335.66,409.49z"/>
<path class="st1" d="M707.99,275.24l0.86,0.58c-0.18,2-0.31,4.63-0.37,7.88c2.38-1.97,4.66-3.97,6.8-6
	c0.64-0.57,1.22-0.98,1.77-1.25c0.55-0.26,1.47-0.55,2.75-0.86c1.28-0.29,2.6-0.44,3.94-0.44c2.28,0,4.47,0.46,6.6,1.39
	c2.14,0.93,3.74,2.02,4.84,3.28c1.08,1.27,1.83,2.76,2.26,4.5c0.41,1.73,0.63,3.86,0.63,6.4v7.86c0,0.5,0.08,4.23,0.21,11.15
	c0.06,2.83,0.38,4.52,0.95,5.05c0.56,0.53,2.41,0.81,5.54,0.81l0.37,0.35v1.92l-0.37,0.35c-3.79-0.23-6.35-0.35-7.7-0.35
	c-0.76,0-2.95,0.12-6.52,0.35l-0.55-0.49c0.4-3.88,0.58-8.93,0.58-15.16v-5.86c0-3.51-0.08-6.05-0.24-7.6
	c-0.15-1.54-0.66-2.96-1.5-4.23c-0.82-1.27-1.95-2.24-3.36-2.95c-1.39-0.7-3.07-1.05-5.01-1.05c-1.54,0-2.87,0.15-3.97,0.47
	c-1.11,0.31-2.35,0.95-3.73,1.92c-1.36,0.96-2.38,1.88-3.04,2.73c-0.66,0.84-1.05,1.63-1.18,2.37c-0.14,0.73-0.21,2.29-0.21,4.67
	v7.79c0,0.66,0.06,2.76,0.18,6.32c0.12,3.57,0.24,5.65,0.38,6.25c0.14,0.6,0.34,1.02,0.61,1.3c0.26,0.27,0.6,0.44,0.98,0.52
	c0.38,0.08,2,0.2,4.83,0.38l0.41,0.35v1.88l-0.37,0.4c-3.73-0.23-7.31-0.35-10.78-0.35c-3.42,0-7.01,0.12-10.74,0.35l-0.4-0.4v-1.88
	l0.4-0.35c2.9-0.18,4.54-0.32,4.9-0.41c0.37-0.09,0.7-0.27,0.98-0.55c0.29-0.29,0.49-0.72,0.6-1.3c0.09-0.58,0.21-2.5,0.35-5.77
	c0.14-3.27,0.2-5.74,0.2-7.41v-8.81c0-1.19-0.06-2.82-0.18-4.89c-0.11-2.05-0.21-3.31-0.29-3.8c-0.06-0.47-0.31-0.82-0.69-1.05
	c-0.38-0.21-1.16-0.34-2.32-0.34l-3.76-0.03l-0.41-0.37v-1.92l0.37-0.35C699.29,277.92,704.08,276.8,707.99,275.24 M682.72,275.24
	l0.84,0.58c-0.32,3.91-0.49,8.87-0.49,14.9v10.11c0,0.66,0.06,2.76,0.18,6.32c0.12,3.57,0.24,5.65,0.38,6.25
	c0.14,0.6,0.34,1.02,0.6,1.3c0.27,0.27,0.6,0.44,0.99,0.52c0.38,0.08,2,0.2,4.83,0.38l0.41,0.35v1.88l-0.37,0.4
	c-3.73-0.23-7.31-0.35-10.78-0.35c-3.42,0-7.01,0.12-10.74,0.35l-0.4-0.4v-1.88l0.4-0.35c2.89-0.18,4.52-0.32,4.9-0.41
	c0.37-0.09,0.7-0.27,0.98-0.55c0.29-0.29,0.49-0.72,0.58-1.3c0.11-0.58,0.23-2.5,0.37-5.77c0.14-3.27,0.2-5.74,0.2-7.41v-8.81
	c0-1.19-0.06-2.82-0.18-4.89c-0.12-2.05-0.21-3.31-0.29-3.8c-0.08-0.47-0.31-0.82-0.69-1.05c-0.4-0.21-1.16-0.34-2.34-0.34
	l-3.76-0.03l-0.4-0.37v-1.92l0.35-0.35C674.02,277.92,678.81,276.8,682.72,275.24z M678.92,255.24c1.41,0,2.6,0.5,3.57,1.48
	c0.99,0.99,1.48,2.18,1.48,3.57c0,1.37-0.49,2.55-1.48,3.54c-0.98,0.98-2.17,1.48-3.57,1.48c-1.37,0-2.57-0.49-3.56-1.47
	c-1.01-0.96-1.5-2.15-1.5-3.56c0-1.39,0.49-2.58,1.5-3.57C676.35,255.74,677.54,255.24,678.92,255.24z M627.92,251.62l0.86,0.53
	c-0.34,3.44-0.49,10.31-0.49,20.63v11.06c2.5-2.06,4.83-4.11,6.98-6.14c0.63-0.57,1.22-0.98,1.79-1.25
	c0.57-0.26,1.48-0.55,2.75-0.86c1.27-0.29,2.57-0.44,3.91-0.44c2.28,0,4.47,0.46,6.6,1.39c2.14,0.93,3.76,2.02,4.84,3.28
	c1.08,1.27,1.83,2.76,2.26,4.5c0.41,1.73,0.63,3.86,0.63,6.4v7.86c0,0.5,0.08,4.23,0.21,11.15c0.09,2.83,0.41,4.52,0.96,5.05
	c0.56,0.53,2.4,0.81,5.53,0.81l0.37,0.35v1.92l-0.37,0.35c-3.79-0.23-6.35-0.35-7.7-0.35c-0.69,0-2.86,0.12-6.52,0.35l-0.55-0.49
	c0.4-3.88,0.6-8.93,0.6-15.16v-5.86c0-3.51-0.09-6.05-0.26-7.6c-0.15-1.54-0.66-2.96-1.5-4.23c-0.82-1.27-1.94-2.24-3.33-2.95
	c-1.39-0.7-3.07-1.05-5.04-1.05c-2.02,0-3.71,0.27-5.07,0.82c-1.36,0.55-2.73,1.48-4.14,2.79c-1.4,1.31-2.24,2.41-2.54,3.3
	c-0.27,0.87-0.41,2.57-0.41,5.07v7.97c0,0.66,0.05,2.76,0.17,6.32c0.12,3.57,0.24,5.65,0.38,6.25c0.14,0.6,0.34,1.02,0.61,1.3
	c0.26,0.27,0.6,0.44,0.98,0.52c0.4,0.08,2,0.2,4.84,0.38l0.4,0.35v1.88l-0.37,0.4c-3.73-0.23-7.31-0.35-10.78-0.35
	c-3.42,0-7.01,0.12-10.74,0.35l-0.4-0.4v-1.88l0.4-0.35c2.9-0.18,4.54-0.32,4.9-0.41c0.38-0.09,0.7-0.27,0.99-0.55
	c0.27-0.29,0.47-0.72,0.58-1.3c0.09-0.58,0.21-2.5,0.35-5.77c0.14-3.27,0.2-5.74,0.2-7.41v-23.18l-0.17-9.48
	c-0.09-3.31-0.2-5.6-0.29-6.89c-0.11-1.28-0.26-2.05-0.43-2.28c-0.18-0.24-0.5-0.43-0.95-0.55c-0.44-0.11-2.24-0.17-5.41-0.17
	l-0.41-0.41v-1.88l0.37-0.4C619.21,254.28,624.01,253.18,627.92,251.62z M578.39,304.73h1.92l0.4,0.4c0.06,2.5,0.21,4.66,0.46,6.44
	c0.92,1.4,2.52,2.54,4.78,3.42c2.28,0.89,4.5,1.31,6.7,1.31c3.18,0,5.7-0.84,7.59-2.55c1.89-1.7,2.84-3.73,2.84-6.08
	c0-1.28-0.34-2.4-1.02-3.33c-0.69-0.95-1.73-1.73-3.11-2.34c-1.39-0.61-3.86-1.33-7.45-2.17c-3.07-0.72-5.21-1.27-6.44-1.68
	c-1.22-0.4-2.4-1.07-3.53-2.03c-1.13-0.95-2-2.12-2.6-3.51c-0.6-1.39-0.9-2.92-0.9-4.58c0-4,1.59-7.19,4.76-9.61
	c3.19-2.4,7.15-3.59,11.88-3.59c2,0,4.18,0.27,6.54,0.82c2.35,0.55,4.15,1.08,5.38,1.59l0.4,0.63c-0.24,1.19-0.38,4.32-0.44,9.39
	l-0.41,0.4h-1.79l-0.4-0.4c-0.12-1.82-0.29-3.1-0.49-3.82c-0.21-0.73-0.75-1.53-1.62-2.38c-0.87-0.84-2.09-1.56-3.66-2.14
	c-1.59-0.58-3.25-0.87-5.01-0.87c-1.82,0-3.34,0.26-4.6,0.79c-1.24,0.53-2.23,1.36-2.99,2.44c-0.76,1.08-1.15,2.41-1.15,3.96
	c0,1.13,0.24,2.15,0.7,3.04c0.46,0.9,1.18,1.62,2.12,2.18c0.96,0.55,1.95,0.95,2.99,1.18l4.89,1.25c4.17,1.02,7.16,1.89,8.96,2.64
	c1.8,0.75,3.19,1.88,4.18,3.37c0.98,1.51,1.48,3.34,1.48,5.48c0,4.12-1.71,7.65-5.1,10.6c-3.41,2.96-7.77,4.44-13.12,4.44
	c-1.88,0-4.21-0.21-6.99-0.63c-2.79-0.43-5.18-0.89-7.15-1.39l-0.21-0.58l0.44-3.01c0.15-0.92,0.24-1.85,0.27-2.79
	c0.03-0.93,0.06-2.92,0.09-5.93L578.39,304.73z M535.36,294.3c0,4.17,0.53,7.91,1.6,11.21c1.08,3.3,2.78,5.94,5.1,7.94
	c2.34,2,4.99,2.99,7.97,2.99c3.51,0,6.43-1.39,8.72-4.18c2.31-2.78,3.45-6.98,3.45-12.58c0-6.35-1.25-11.56-3.74-15.62
	c-2.49-4.05-6.08-6.08-10.75-6.08c-3.88,0-6.92,1.4-9.09,4.2C536.44,284.99,535.36,289.02,535.36,294.3z M526.9,297.39
	c0-3.54,0.73-6.96,2.2-10.26c1.47-3.3,4-6.15,7.62-8.55c3.63-2.4,7.93-3.6,12.92-3.6c6.26,0,11.36,1.99,15.3,5.94
	c3.92,3.94,5.89,9.02,5.89,15.22c0,6.83-2.26,12.46-6.78,16.87c-4.52,4.41-9.96,6.61-16.34,6.61c-4.18,0-7.91-1.11-11.19-3.37
	c-3.28-2.24-5.7-5.01-7.27-8.25C527.68,304.75,526.9,301.2,526.9,297.39z M513.94,251.62l0.84,0.53
	c-0.32,3.44-0.49,10.31-0.49,20.63v28.05c0,0.66,0.06,2.76,0.18,6.32c0.12,3.57,0.24,5.65,0.38,6.25c0.14,0.6,0.34,1.02,0.6,1.3
	c0.27,0.27,0.6,0.44,0.99,0.52c0.38,0.08,2,0.2,4.83,0.38l0.41,0.35v1.88l-0.37,0.4c-3.73-0.23-7.31-0.35-10.78-0.35
	c-3.44,0-7.01,0.12-10.74,0.35l-0.4-0.4v-1.88l0.4-0.35c2.89-0.18,4.52-0.32,4.9-0.41c0.37-0.09,0.7-0.27,0.98-0.55
	c0.29-0.29,0.47-0.72,0.58-1.3c0.11-0.58,0.23-2.5,0.37-5.77c0.14-3.27,0.2-5.74,0.2-7.41v-23.18l-0.18-9.48
	c-0.09-3.31-0.18-5.6-0.29-6.89c-0.11-1.28-0.24-2.05-0.43-2.28c-0.17-0.24-0.49-0.43-0.93-0.55c-0.46-0.11-2.26-0.17-5.42-0.17
	l-0.4-0.41v-1.88l0.35-0.4C505.22,254.28,510.03,253.18,513.94,251.62z M458.69,294.3c0,4.17,0.53,7.91,1.6,11.21
	c1.08,3.3,2.78,5.94,5.1,7.94c2.34,2,4.99,2.99,7.97,2.99c3.51,0,6.43-1.39,8.72-4.18c2.31-2.78,3.45-6.98,3.45-12.58
	c0-6.35-1.25-11.56-3.74-15.62c-2.49-4.05-6.08-6.08-10.75-6.08c-3.88,0-6.92,1.4-9.09,4.2
	C459.77,284.99,458.69,289.02,458.69,294.3z M450.23,297.39c0-3.54,0.73-6.96,2.2-10.26c1.47-3.3,4-6.15,7.62-8.55
	c3.63-2.4,7.93-3.6,12.92-3.6c6.26,0,11.36,1.99,15.3,5.94c3.92,3.94,5.89,9.02,5.89,15.22c0,6.83-2.26,12.46-6.78,16.87
	c-4.52,4.41-9.96,6.61-16.34,6.61c-4.18,0-7.91-1.11-11.19-3.37c-3.28-2.24-5.7-5.01-7.27-8.25
	C451,304.75,450.23,301.2,450.23,297.39z M411.81,318.69c-0.46-1.31-2.32-6.32-5.6-15.04l-15.21-37.63
	c-1.73-4.29-2.81-6.72-3.27-7.31c-0.44-0.58-2.23-0.98-5.36-1.18l-0.4-0.41v-2.05l0.4-0.41c4.57,0.24,8.44,0.37,11.64,0.37
	c2.98,0,6.93-0.12,11.85-0.37l0.35,0.37v2.46l-0.35,0.35c-3.6,0-5.76,0.12-6.46,0.34c-0.7,0.23-1.05,0.66-1.05,1.28
	c0,0.35,0.47,1.94,1.44,4.76c0.95,2.81,1.8,5.19,2.55,7.13l14,35.4l11.67-29.35c0.81-2,1.99-5.22,3.54-9.67
	c1.54-4.44,2.32-7.12,2.32-8.02c0-0.73-0.37-1.22-1.1-1.42c-0.73-0.21-2.92-0.47-6.55-0.76l-0.4-0.37v-2.14l0.4-0.37
	c5.22,0.24,8.55,0.37,9.97,0.37c1.16,0,4.18-0.12,9.04-0.37l0.37,0.37v2.14l-0.37,0.37c-2.14,0.09-3.44,0.24-3.89,0.49
	c-0.44,0.24-0.84,0.7-1.18,1.39c-0.35,0.69-1.42,3.04-3.21,7.07l-13.96,34.36c-3.13,7.67-5.36,13.61-6.66,17.85H411.81z
	 M309.17,342.17c1.01-2.5,1.77-4.81,2.28-6.89h1.08c1.45,1.57,3.04,2.37,4.73,2.37c2.12,0,3.95-1.05,5.53-3.16
	c1.57-2.09,3.79-6.75,6.64-13.93c-1.13-3.19-2.28-6.21-3.45-9.04l-7.1-17.62c-0.75-1.82-1.86-4.43-3.31-7.82
	c-1.47-3.37-2.34-5.24-2.63-5.59c-0.27-0.34-0.64-0.66-1.08-0.96c-0.46-0.29-1.66-0.58-3.63-0.84l-0.35-0.37v-1.79l0.4-0.35
	c3.44,0.2,6.95,0.31,10.57,0.31c4.23,0,7.5-0.11,9.79-0.31l0.37,0.35v1.79l-0.32,0.37c-0.32,0.03-1.24,0.09-2.75,0.2
	c-1.51,0.11-2.44,0.34-2.83,0.72c-0.37,0.37-0.55,0.79-0.55,1.27c0,0.5,0.46,2.15,1.39,4.95c0.92,2.78,1.82,5.25,2.67,7.41
	l2.82,6.98c1.85,4.6,3.28,7.97,4.29,10.15l2.38-5.24c0.82-1.91,2.02-4.79,3.57-8.67l3.71-9.48c0.96-2.46,1.5-3.97,1.63-4.57
	c0.14-0.6,0.2-1.04,0.2-1.3c0-0.66-0.23-1.1-0.72-1.34c-0.47-0.24-1.53-0.44-3.18-0.63l-1.88-0.27l-0.31-0.35v-1.97l0.35-0.35
	c2.5,0.2,5.48,0.31,8.9,0.31c3.13,0,5.64-0.11,7.51-0.31l0.37,0.35v1.97l-0.37,0.35c-1.1,0.03-1.99,0.18-2.64,0.46
	c-0.64,0.26-1.27,0.73-1.88,1.42c-0.6,0.69-1.66,2.63-3.21,5.8c-1.56,3.18-3.11,6.46-4.66,9.86l-4.38,9.62l-10.34,24.16
	c-0.9,2.08-2,4.32-3.33,6.7c-1.33,2.38-2.96,4.11-4.89,5.16c-1.92,1.07-3.96,1.59-6.11,1.6
	C312.61,343.64,310.84,343.15,309.17,342.17z M288.14,275.24l0.86,0.58c-0.18,1.73-0.32,4.8-0.41,9.22l3.36-4.26
	c1.1-1.41,2.08-2.47,2.93-3.24c0.85-0.76,1.85-1.36,2.98-1.77c1.13-0.41,2.29-0.63,3.48-0.63c1.31,0,2.55,0.27,3.71,0.81l0.32,0.63
	c-0.47,3.97-0.75,7.45-0.81,10.46h-2.02c-1.19-2.73-3.12-4.11-5.77-4.11c-1.85,0-3.45,0.58-4.83,1.77
	c-1.37,1.18-2.29,2.64-2.75,4.43c-0.46,1.77-0.7,4.02-0.7,6.73v4.96c0,0.89,0.06,3.08,0.18,6.57c0.12,3.5,0.24,5.51,0.38,6.05
	c0.14,0.53,0.35,0.93,0.63,1.19c0.29,0.24,0.66,0.41,1.11,0.5c0.47,0.09,2.6,0.24,6.38,0.46l0.4,0.35v1.88l-0.4,0.4
	c-3.97-0.23-8.11-0.35-12.45-0.35c-3.42,0-7.01,0.12-10.74,0.35l-0.4-0.4v-1.88l0.4-0.35c2.9-0.18,4.54-0.32,4.9-0.41
	c0.37-0.09,0.7-0.27,0.98-0.55c0.29-0.29,0.49-0.72,0.6-1.3c0.09-0.58,0.21-2.5,0.35-5.77c0.14-3.27,0.2-5.74,0.2-7.41v-8.81
	c0-1.19-0.06-2.82-0.18-4.89c-0.11-2.05-0.21-3.31-0.29-3.8c-0.06-0.47-0.31-0.82-0.69-1.05c-0.38-0.21-1.16-0.34-2.32-0.34
	l-3.76-0.03l-0.41-0.37v-1.92l0.37-0.35C279.44,277.92,284.23,276.8,288.14,275.24z M237.95,293c0.53,0.09,2.6,0.2,6.2,0.32
	c3.59,0.11,6.25,0.17,7.99,0.17c4.14,0,6.66-0.08,7.56-0.21c0.03-0.72,0.05-1.27,0.05-1.66c0-4.63-0.95-8.06-2.83-10.31
	c-1.88-2.24-4.44-3.37-7.7-3.37c-3.54,0-6.31,1.27-8.29,3.8C238.94,284.27,237.95,288.02,237.95,293z M266.63,311.3l-1.44,3.22
	c-3.1,2-5.86,3.3-8.29,3.89c-2.44,0.6-4.61,0.9-6.52,0.9c-3.57,0-6.96-0.7-10.17-2.11c-3.21-1.41-5.82-3.77-7.83-7.12
	c-2.02-3.34-3.02-7.36-3.02-12.08c0-3.13,0.4-5.96,1.18-8.48c0.76-2.52,1.59-4.4,2.43-5.62c0.86-1.22,2.29-2.58,4.32-4.06
	c2.03-1.5,4.17-2.69,6.44-3.59c2.26-0.89,4.7-1.34,7.33-1.34c3.59,0,6.73,0.86,9.47,2.54c2.73,1.68,4.64,3.83,5.74,6.46
	c1.11,2.63,1.66,5.42,1.66,8.37c0,0.93-0.05,1.82-0.14,2.69l-0.49,0.49c-2.03,0.44-4.76,0.75-8.18,0.9
	c-3.44,0.15-5.7,0.21-6.81,0.21h-14.35c0.06,6.18,1.6,10.74,4.66,13.65c3.04,2.92,6.76,4.38,11.18,4.38c2.09,0,4.09-0.35,6.02-1.07
	c1.92-0.72,3.96-1.71,6.11-2.99L266.63,311.3z M217.15,251.62l0.84,0.53c-0.32,3.44-0.49,10.31-0.49,20.63v28.05
	c0,0.66,0.06,2.76,0.18,6.32c0.12,3.57,0.24,5.65,0.38,6.25c0.14,0.6,0.34,1.02,0.6,1.3c0.27,0.27,0.6,0.44,0.99,0.52
	c0.38,0.08,2,0.2,4.83,0.38l0.41,0.35v1.88l-0.37,0.4c-3.73-0.23-7.31-0.35-10.78-0.35c-3.44,0-7.01,0.12-10.74,0.35l-0.4-0.4v-1.88
	l0.4-0.35c2.89-0.18,4.52-0.32,4.9-0.41c0.37-0.09,0.7-0.27,0.98-0.55c0.29-0.29,0.47-0.72,0.58-1.3c0.11-0.58,0.23-2.5,0.37-5.77
	c0.14-3.27,0.2-5.74,0.2-7.41v-23.18l-0.18-9.48c-0.09-3.31-0.18-5.6-0.29-6.89c-0.11-1.28-0.24-2.05-0.43-2.28
	c-0.17-0.24-0.49-0.43-0.93-0.55c-0.46-0.11-2.26-0.17-5.42-0.17l-0.4-0.41v-1.88l0.35-0.4
	C208.43,254.28,213.24,253.18,217.15,251.62z M184.84,294.62c-8.34,1.39-13.55,2.9-15.61,4.5c-2.06,1.62-3.08,4.11-3.08,7.48
	c0,4.64,2.31,6.98,6.93,6.98c3.97,0,7.89-2.31,11.76-6.89V294.62z M164.09,287.55l-1.74-0.46l-0.37-0.44v-5.54
	c5.31-3.94,10.48-5.91,15.48-5.91c3.44,0,6.28,0.64,8.55,1.92c2.26,1.28,3.91,2.89,4.92,4.81c1.01,1.92,1.53,4.17,1.53,6.73
	l-0.23,8.99v13.33c0,1.82,0.12,2.92,0.38,3.31c0.24,0.38,0.53,0.64,0.87,0.78c0.32,0.14,0.93,0.24,1.83,0.34l2.55,0.21l0.35,0.41
	v1.79l-0.35,0.37c-2.18-0.18-4.2-0.27-6.08-0.27c-1.8,0-3.94,0.09-6.44,0.27l-0.67-0.64l0.17-7.19l-9.74,7.6
	c-1.65,0.69-3.44,1.02-5.38,1.02c-2.38,0-4.43-0.43-6.15-1.3c-1.71-0.86-3.02-2.06-3.92-3.62c-0.92-1.56-1.37-3.44-1.37-5.63
	c0-4.38,1.37-7.8,4.12-10.28c2.75-2.46,10.23-4.55,22.45-6.28c0-4.41-0.98-7.53-2.95-9.33c-1.97-1.8-4.61-2.7-7.91-2.7
	c-1.74,0-3.31,0.24-4.73,0.76c-1.41,0.5-2.23,0.92-2.43,1.22c-0.21,0.32-1.02,2.14-2.41,5.48L164.09,287.55z M126.6,318.69
	c-0.46-1.31-2.32-6.32-5.6-15.04l-15.21-37.63c-1.73-4.29-2.81-6.72-3.27-7.31c-0.44-0.58-2.23-0.98-5.36-1.18l-0.4-0.41v-2.05
	l0.4-0.41c4.57,0.24,8.44,0.37,11.64,0.37c2.98,0,6.93-0.12,11.85-0.37l0.35,0.37v2.46l-0.35,0.35c-3.6,0-5.76,0.12-6.46,0.34
	c-0.7,0.23-1.05,0.66-1.05,1.28c0,0.35,0.47,1.94,1.44,4.76c0.95,2.81,1.8,5.19,2.55,7.13l14,35.4l11.67-29.35
	c0.81-2,1.99-5.22,3.54-9.67c1.54-4.44,2.32-7.12,2.32-8.02c0-0.73-0.37-1.22-1.1-1.42c-0.73-0.21-2.92-0.47-6.55-0.76l-0.4-0.37
	v-2.14l0.4-0.37c5.22,0.24,8.55,0.37,9.97,0.37c1.16,0,4.18-0.12,9.04-0.37l0.37,0.37v2.14l-0.37,0.37
	c-2.14,0.09-3.44,0.24-3.89,0.49c-0.44,0.24-0.84,0.7-1.18,1.39c-0.35,0.69-1.42,3.04-3.21,7.07l-13.96,34.36
	c-3.13,7.67-5.36,13.61-6.66,17.85H126.6z"/>
<path class="st2" d="M451.29,95.17c0.28-0.07,0.61,0.31,0.74,0.84c0.07,0.3,0.06,0.58-0.01,0.79l1.04,3.28
	c1.14,3.4,1.91,7.13,2.87,10.61l7.4,30.26c0.27,1.23-0.39,1.35-0.59,1.4l0,0c-0.2,0.05-0.84,0.23-1.17-0.98l-7.3-30.28
	c-0.74-3.52-1.77-7.2-2.31-10.74l-0.58-3.39c-0.16-0.15-0.29-0.4-0.36-0.7C450.89,95.72,451.01,95.24,451.29,95.17"/>
<path class="st2" d="M473.79,95.17c-0.28-0.07-0.61,0.31-0.74,0.84c-0.07,0.3-0.06,0.58,0.01,0.79l-1.04,3.28
	c-1.14,3.4-1.91,7.13-2.87,10.61l-7.4,30.26c-0.27,1.23,0.39,1.35,0.59,1.4l0,0c0.2,0.05,0.84,0.23,1.17-0.98l7.3-30.28
	c0.74-3.52,1.77-7.2,2.31-10.74l0.58-3.39c0.16-0.15,0.29-0.4,0.36-0.7C474.2,95.72,474.07,95.24,473.79,95.17"/>
<path class="st3" d="M431.12,60.61c0.44-0.1,0.95,0.48,1.15,1.31c0.11,0.47,0.1,0.91-0.01,1.22l1.62,5.1
	c1.78,5.29,2.98,11.11,4.47,16.51l11.52,47.1c0.41,1.91-0.61,2.11-0.92,2.18l-0.01,0c-0.31,0.07-1.31,0.36-1.82-1.53l-11.36-47.14
	c-1.15-5.48-2.76-11.2-3.6-16.72l-0.9-5.27c-0.24-0.23-0.46-0.62-0.57-1.09C430.49,61.47,430.69,60.71,431.12,60.61"/>
<path class="st3" d="M466.25,60.61c-0.44-0.1-0.95,0.48-1.15,1.31c-0.11,0.47-0.1,0.91,0.01,1.22l-1.62,5.1
	c-1.78,5.29-2.98,11.11-4.47,16.51l-11.52,47.1c-0.41,1.91,0.61,2.11,0.92,2.18l0.01,0c0.31,0.07,1.31,0.36,1.82-1.53l11.36-47.14
	c1.15-5.48,2.76-11.2,3.6-16.72l0.9-5.27c0.24-0.23,0.46-0.62,0.57-1.09C466.88,61.47,466.68,60.71,466.25,60.61"/>
<path class="st2" d="M451.01,94.09c0.28-0.07,0.61,0.31,0.74,0.84c0.07,0.3,0.06,0.58-0.01,0.79l1.04,3.28
	c1.14,3.4,1.91,7.13,2.87,10.61l7.4,30.26c0.27,1.23-0.39,1.35-0.59,1.4l0,0c-0.2,0.05-0.84,0.23-1.17-0.98l-7.3-30.28
	c-0.74-3.52-1.77-7.2-2.31-10.74l-0.58-3.39c-0.16-0.15-0.29-0.4-0.36-0.7C450.6,94.64,450.73,94.16,451.01,94.09"/>
<path class="st2" d="M473.51,94.09c-0.28-0.07-0.61,0.31-0.74,0.84c-0.07,0.3-0.06,0.58,0.01,0.79l-1.04,3.28
	c-1.14,3.4-1.91,7.13-2.87,10.61l-7.4,30.26c-0.27,1.23,0.39,1.35,0.59,1.4l0,0c0.2,0.05,0.84,0.23,1.17-0.98l7.3-30.28
	c0.74-3.52,1.77-7.2,2.31-10.74l0.58-3.39c0.16-0.15,0.29-0.4,0.36-0.7C473.92,94.64,473.79,94.16,473.51,94.09"/>
<path class="st1" d="M456.09,139.67c0-0.62-0.15-1.12-0.45-1.49c-0.3-0.37-0.74-0.55-1.32-0.55c-0.76,0-1.27,0.29-1.52,0.86
	c-0.13,0.29-0.19,0.62-0.19,0.99c0,0.67,0.15,1.19,0.44,1.58c0.3,0.4,0.76,0.6,1.36,0.6c0.73,0,1.22-0.3,1.48-0.91
	C456.02,140.43,456.09,140.07,456.09,139.67 M457.27,139.5c0,0.79-0.28,1.42-0.83,1.87c-0.54,0.44-1.27,0.66-2.2,0.66
	c-0.88,0-1.57-0.21-2.07-0.62c-0.5-0.41-0.75-0.99-0.75-1.73c0-1.03,0.47-1.75,1.42-2.15c0.43-0.18,0.96-0.27,1.58-0.27
	c0.9,0,1.6,0.2,2.09,0.59C457.02,138.25,457.27,138.8,457.27,139.5z M450.75,141.88l-0.04,0.03c-0.26-0.01-0.65-0.02-1.19-0.02
	c-0.53,0-0.93,0.01-1.19,0.02l-0.04-0.03v-0.22l0.04-0.03c0.26-0.01,0.41-0.02,0.45-0.03c0.07-0.02,0.12-0.06,0.13-0.12
	c0.03-0.16,0.05-0.49,0.05-1v-1.71c0-0.51-0.02-0.85-0.05-1c-0.01-0.06-0.06-0.1-0.13-0.12c-0.04-0.01-0.19-0.02-0.45-0.03
	l-0.04-0.03v-0.22l0.04-0.03c0.25,0.01,0.64,0.02,1.19,0.02c0.54,0,0.94-0.01,1.18-0.02l0.04,0.03v0.22l-0.04,0.03
	c-0.26,0.01-0.41,0.02-0.45,0.03c-0.07,0.02-0.12,0.06-0.13,0.12c-0.03,0.15-0.05,0.49-0.05,1v1.71c0,0.51,0.02,0.85,0.05,1
	c0.01,0.06,0.06,0.1,0.13,0.12c0.04,0.01,0.19,0.02,0.45,0.03l0.04,0.03V141.88z M446.44,139.51c0-0.6-0.17-1.05-0.52-1.38
	c-0.18-0.17-0.41-0.29-0.67-0.35c-0.26-0.07-0.62-0.1-1.08-0.1c-0.24,0-0.47,0.01-0.69,0.04c-0.02,0.24-0.04,0.82-0.04,1.75
	l0.01,1.41c0,0.31,0.01,0.52,0.03,0.63c0.23,0.03,0.46,0.05,0.69,0.05c0.51,0,0.91-0.06,1.21-0.19c0.32-0.14,0.57-0.37,0.76-0.69
	C446.34,140.34,446.44,139.95,446.44,139.51z M447.62,139.35c0,0.73-0.28,1.33-0.85,1.81c-0.28,0.23-0.61,0.42-1.01,0.55
	c-0.42,0.14-0.92,0.21-1.48,0.2l-1.36-0.02c-0.37,0-0.68,0-0.92,0.02l-0.04-0.03v-0.09l0.02-0.04c0.19-0.1,0.29-0.16,0.31-0.19
	c0.02-0.04,0.04-0.18,0.04-0.43l0.01-0.72v-1.64c0-0.51-0.02-0.85-0.05-1c-0.01-0.06-0.06-0.1-0.13-0.12
	c-0.04-0.01-0.19-0.02-0.45-0.03l-0.04-0.03v-0.22l0.04-0.03c0.27,0.01,0.53,0.02,0.78,0.02c0.6,0,1.14-0.01,1.62-0.02
	c0.24-0.01,0.48-0.01,0.72-0.01c0.67,0,1.18,0.06,1.54,0.19c0.39,0.14,0.7,0.36,0.92,0.66
	C447.51,138.48,447.62,138.87,447.62,139.35z M441.22,137.58l-0.04,0.03c-0.3,0-0.47,0.07-0.51,0.2c-0.02,0.07-0.04,0.24-0.05,0.49
	c-0.01,0.19-0.01,0.46-0.01,0.81v0.99c0,0.64-0.15,1.1-0.45,1.37c-0.4,0.36-0.97,0.54-1.7,0.54c-0.67,0-1.2-0.09-1.58-0.28
	c-0.32-0.16-0.53-0.38-0.62-0.68c-0.06-0.19-0.09-0.68-0.09-1.47v-0.83c0-0.51-0.02-0.85-0.05-1c-0.01-0.06-0.06-0.1-0.13-0.12
	c-0.04-0.01-0.19-0.02-0.45-0.03l-0.04-0.03v-0.22l0.04-0.03c0.25,0.01,0.64,0.02,1.19,0.02c0.56,0,0.95-0.01,1.18-0.02l0.04,0.03
	v0.22l-0.04,0.03c-0.26,0.01-0.41,0.02-0.45,0.03c-0.08,0.02-0.12,0.06-0.13,0.12c-0.03,0.15-0.05,0.49-0.05,1v0.67
	c0,0.81,0.04,1.31,0.13,1.49c0.17,0.36,0.61,0.54,1.29,0.54c0.45,0,0.8-0.09,1.05-0.28c0.12-0.09,0.2-0.18,0.25-0.27
	c0.05-0.09,0.08-0.23,0.11-0.42c0.02-0.18,0.04-0.35,0.04-0.54v-0.67c0-0.56,0-0.95-0.01-1.15c-0.01-0.19-0.02-0.32-0.05-0.38
	c-0.02-0.04-0.07-0.08-0.14-0.1c-0.06-0.02-0.22-0.04-0.47-0.05l-0.04-0.03v-0.22l0.04-0.03c0.22,0.01,0.45,0.02,0.69,0.02
	c0.18,0,0.52-0.01,1.02-0.02l0.04,0.03V137.58z M435.12,137.35c-0.03,0.16-0.05,0.32-0.05,0.49l-0.01,0.54l-0.04,0.03h-0.24
	l-0.04-0.03c-0.01-0.28-0.03-0.44-0.04-0.48c-0.03-0.09-0.11-0.14-0.25-0.15c-0.05-0.01-0.29-0.01-0.73-0.01h-0.52
	c-0.01,0.08-0.01,0.37-0.01,0.9v1.83c0,0.51,0.02,0.85,0.05,1c0.01,0.06,0.06,0.1,0.13,0.12c0.04,0.01,0.19,0.02,0.45,0.03
	l0.04,0.03v0.22l-0.04,0.03c-0.25-0.01-0.65-0.02-1.19-0.02c-0.55,0-0.95,0.01-1.19,0.02l-0.04-0.03v-0.22l0.04-0.03
	c0.26-0.01,0.41-0.02,0.45-0.03c0.08-0.02,0.12-0.06,0.13-0.12c0.03-0.16,0.05-0.49,0.05-1v-1.83c0-0.53,0-0.83-0.01-0.9h-0.55
	c-0.46,0-0.73,0.01-0.81,0.04c-0.04,0.01-0.07,0.03-0.08,0.05c-0.02,0.04-0.04,0.1-0.06,0.21c-0.02,0.11-0.03,0.23-0.04,0.35
	l-0.04,0.03h-0.24l-0.04-0.03l-0.01-0.55c0-0.15-0.02-0.32-0.05-0.48l0.04-0.03c0.15,0.02,0.7,0.03,1.66,0.03h1.56
	c0.88,0,1.43-0.01,1.66-0.03L435.12,137.35z M429.6,140.4c0,0.36-0.12,0.67-0.36,0.94c-0.21,0.24-0.49,0.42-0.83,0.53
	c-0.31,0.11-0.69,0.16-1.12,0.16c-0.54,0-1.07-0.1-1.59-0.31l-0.05-0.07c0.07-0.25,0.11-0.6,0.11-1.06l0.04-0.03h0.25l0.04,0.03
	v0.07c0,0.12,0.02,0.28,0.05,0.48c0.09,0.14,0.26,0.26,0.5,0.35c0.25,0.1,0.51,0.16,0.78,0.16c0.51,0,0.86-0.15,1.06-0.45
	c0.1-0.15,0.15-0.31,0.15-0.48c0-0.28-0.14-0.47-0.41-0.59c-0.14-0.06-0.36-0.11-0.66-0.15c-0.69-0.09-1.14-0.2-1.35-0.33
	c-0.33-0.2-0.49-0.51-0.49-0.94c0-0.44,0.18-0.79,0.53-1.06c0.38-0.28,0.9-0.41,1.57-0.41c0.6,0,1.09,0.08,1.46,0.24l0.03,0.08
	c-0.06,0.26-0.1,0.56-0.11,0.92l-0.04,0.03h-0.24l-0.04-0.03c-0.01-0.26-0.02-0.43-0.04-0.5c-0.08-0.1-0.22-0.19-0.42-0.26
	c-0.21-0.07-0.43-0.11-0.66-0.11c-0.34,0-0.62,0.08-0.82,0.23c-0.19,0.14-0.28,0.33-0.28,0.56c0,0.25,0.11,0.43,0.32,0.55
	c0.14,0.08,0.47,0.15,0.98,0.22c0.05,0.01,0.2,0.03,0.45,0.07c0.15,0.02,0.29,0.05,0.42,0.09c0.26,0.08,0.46,0.21,0.59,0.37
	C429.53,139.9,429.6,140.12,429.6,140.4z"/>
<path class="st2" d="M411.91,49.13l37.3-2.6c-22.37,2.45-26.51,4.29-35.85,16.42c-10.02,13.03-12.96,28.66-12.43,42.66
	c0.38,10,3.01,20.52,7.14,29.38c-0.13-0.13-0.76,0-0.99,0v0.04H407v0.04l-0.37,0.08v0.02l-0.24,0.14h-0.04v0.08
	c-0.09,0-0.08,0.05-0.08,0.12h-0.04c0,0.09-0.11,1.32,0.16,1.32c0,0.06,0.06,0.12,0.12,0.12V137h0.04v0.04
	c0.48,0,0.96,0.05,1.47,0.05v0.03l0.99,0.37l0.43,1.04c2.85,5.55,4.79,7.97,8.9,11.54c3.3,2.87-0.14,0.85,4.28,3.19l-1.34,0.39
	l-0.74,1.31l-9.61-2.11l-1.21-0.59l-3.07-0.99l-5.08-0.45c-17.99-4.3-34.41-37.32-26.32-66.05
	C379.42,69.94,389.79,53.67,411.91,49.13"/>
<path class="st1" d="M375.69,76.31c-5.27,11.18-6.38,23.83-4.69,34.96c3.53,18.13,7.05,19.07,10.59,28.02
	c-5.31-6.54-9.69-16.62-11.4-27.9c-1.71-11.28-0.76-23.76,4.58-35.11c3.21-6.81,7.99-13.2,14.73-18.68
	C382.49,63.32,377,73.54,375.69,76.31"/>
<path class="st1" d="M379.9,138.36c2.74,3.41,5.95,6.78,9.67,10.1l-0.82,0.92c-3.82-3.41-7.12-6.89-9.93-10.4h0.99L379.9,138.36z
	 M366.21,105.67c0.9,10.47,4.79,20.47,11.24,29.46l-1.08-0.07v0.37h-0.04v0.26c-6.59-9.24-10.52-19.53-11.38-30.29l0.02,0.03H365
	v0.16h0.49v0.08H366.21z M373.97,71.51c-5.01,8.83-7.88,18.6-7.95,28.61l-1.24-0.09c0.09-9.96,2.88-19.67,7.76-28.51v0.11
	L373.97,71.51z M395.08,50.81c-7.21,2.62-14.92,10.99-19.15,17.47c-0.5,0-0.93-0.05-1.43-0.06c4.47-7.03,11.69-14.99,19.59-17.86
	L395.08,50.81z"/>
<path class="st1" d="M405.4,50.52c-22.85,7.83-33.33,30.16-32.56,53.14c0.35,10.42,3.05,20.58,7.73,28.75
	c4.96,8.66,12.18,16,21.13,18.08l-0.2,0.68c-9.32-2.17-16.88-9.21-22.01-18.15c-4.78-8.34-7.54-18.7-7.89-29.33
	c-0.8-23.76,10.22-46.7,33.93-54.53L405.4,50.52z M406.41,50.19l-0.14,0.05l0.03-0.06 M409.63,49.42l-0.1,0.02l0.09-0.05
	 M411.79,49.14l-0.1,0.01 M420.18,48.81c-2.65,0.07-5.33,0.08-7.97,0.3v-0.59h-0.04v-0.08c-0.26,0-0.27-0.2-0.41-0.2v-0.04h-1.36
	l-0.04,0.08c-0.14,0-0.14,0.04-0.2,0.04l-0.04,0.08l-1.03-0.14c3.57-0.63,8.01-0.65,11.64-0.75L420.18,48.81z"/>
<path class="st2" d="M441.63,49.43c33.29-7.87,53.03,29.24,47.19,64.16c-3.64,21.76-18.68,40.5-38.33,43.74
	c-3.28,0.18-6.48,0.17-9.84-0.77c23.41,1.73,40.84-17.76,45.88-39.78C493.69,85.38,480.31,45.36,441.63,49.43"/>
<path class="st1" d="M455.93,48.97c-3.66-0.61-7.58-0.61-11.72,0.09c4.42-0.25,8.49,0.1,12.22,0.95
	c9.71,2.22,17.12,7.86,22.35,15.44c5.23,7.56,8.3,17.05,9.35,26.96c0.85,8.12,0.35,16.53-1.45,24.4
	c-2.66,11.65-8.78,22.59-17.41,30.07c-7.34,6.36-16.5,10.23-26.89,9.92c1.09,0.21,2.16,0.34,3.23,0.4c1.62,0.1,3.23,0.05,4.86-0.04
	c9.57-1.58,18.05-6.86,24.64-14.37c6.88-7.86,11.7-18.16,13.56-29.24c1.65-9.85,1.25-19.87-0.91-29.01
	c-2.15-9.11-6.06-17.33-11.46-23.61C470.9,54.66,464.02,50.32,455.93,48.97"/>
<path class="st2" d="M463.55,155.39c-3.47,1.65-7.16,2.83-11.02,3.46c-3.45,0.19-6.81,0.18-10.35-0.79
	c7.7,0.56,14.78-1.02,21.04-4.15c0,0.17,0.02,0.3,0.05,0.42h-0.07l0.02,0.67h0.02L463.55,155.39z M485.27,134.68
	c-4.48,7.68-10.54,14.14-17.71,18.52l-0.51-0.71c-0.06,0-0.02-0.06-0.1-0.1v-0.02l-0.41-0.29v-0.02h-0.01
	c7.23-4.45,13.2-11.03,17.54-18.68l0.01,0.01v0.02l0.57,0.51v0.02l-0.04-0.01v0.63L485.27,134.68z M493.88,103.07
	c-0.23,8.73-1.87,17.19-5.37,25.22l-0.47-0.32c0-0.04-0.5-0.62-0.61-0.81h-0.3c3.23-7.61,4.84-15.85,5.18-24.09H493.88z
	 M487.35,70.98c3.84,7.97,6.09,17.27,6.5,26.93l-1.5-0.18c-0.27-9.32-2.27-18.52-6.08-26.46l0.35-0.02l0.06,0.39h0.63L487.35,70.98z
	 M466.63,49.51c7.39,3.29,13.49,9.13,18.03,16.54l-0.9,0.65c-4.21-6.85-10.02-12.41-17.49-15.78l0.13-0.22l0.04-0.02l0.08-0.14V50.5
	h0.02l0.02-0.04h0.02v-0.02h0.02v-0.02l0.02-0.02V49.51z M464.92,48.8l0.05,0.02 M443.22,47.65c6.77-1.57,13.01-1.4,18.63,0.15
	l0.87,1.72C457.07,47.62,450.58,46.89,443.22,47.65z"/>
<path d="M410.33,136.8c3.79,7.43,8.6,13.51,16,17.65l-3.13-0.38v0.09c-6.2-4.26-10.97-10.98-14.18-17.44l0.59-0.02v0.04
	L410.33,136.8z M402.65,106.56c0.41,9.82,2.66,19.43,6.78,28.39l-1.26-0.01c-3.99-8.81-6.27-18.6-6.67-28.47
	C401.93,106.56,402.2,106.56,402.65,106.56z M410,72.05c-5.11,9.59-7.54,20.47-7.41,32.05c-0.2,0-0.34-0.07-0.55-0.07v0
	c-0.21,0-0.39-0.01-0.6,0.04c-0.1-11.11,2.19-22.21,7.12-32.02H410z M426.06,52.49c0.02,0.21,0.04,0.43-0.19,0.62
	c-6.05,4.83-10.89,10.43-14.56,16.62c-0.23-0.38-1.05-0.19-1.05-0.19l-0.02,0.04h-0.06c-0.17,0.18-0.12,0.05-0.28,0.37l-0.23,0.04
	c4.04-7.3,9.34-13.4,15.9-18.54l0.7,0.9L426.06,52.49z"/>
<path class="st1" d="M415.55,69.45c4.69-7.52,10.97-14.18,18.58-18.78l0.84,0.13l0.01,0.55c-7.59,4.59-13.99,10.17-18.79,17.67h-0.3
	v0.04h-0.08v0.08h-0.04L415.55,69.45z M414.68,70.88l0.09-0.15 M414.56,71.1l0.1-0.17 M407.76,89.02c1.26-5.7,3.12-10.94,5.59-15.71
	h0.01"/>
<path class="st1" d="M416.34,137.03c4.61,7.6,12.36,14.63,21.47,18.48l-0.5,0.75c-9.24-3.9-17.01-10.79-21.72-18.47h0.12v-0.04h0.04
	v-0.04c0.09,0,0.08-0.05,0.08-0.12h0.04v-0.08l0.08-0.04c0-0.13,0.04-0.08,0.04-0.16l0.08-0.04v-0.04l0.16-0.08v-0.04L416.34,137.03
	z M408.38,107.68c0.19,8.79,1.99,17.47,5.67,25.12h-0.48v0.12h-0.08c0,0.14-0.12,0.03-0.12,0.16h-0.04v0.04
	c-0.13,0-0.08,0.04-0.16,0.04l0,0.17c-3.7-7.73-5.56-16.44-5.8-25.25l0.73-0.04C408.08,107.94,408.26,107.68,408.38,107.68z
	 M415.94,73.74c-4.68,9.13-7.17,19.63-7.53,29.85c-0.21,0-0.49-0.38-0.61-0.53h-0.41c0.39-9.35,2.74-19.81,7.23-28.98v0l1.03,0.12
	c0.07-0.14,0.08-0.07,0.08-0.25h0.04v-0.04h0.04v-0.08L415.94,73.74z M435.15,53.68c-6.97,3.3-12.82,9.18-17.25,16.54
	c0-0.15,0.07-0.67-0.08-0.67l-0.08-0.2h-0.04v-0.04h-0.46c4.33-7.12,10.12-13.08,17.48-16.55L435.15,53.68z"/>
<path class="st4" d="M400.32,70.9c0.63,0,1.15,0.24,1.15,0.55c0,0.3-0.51,0.55-1.15,0.55c-0.63,0-1.15-0.25-1.15-0.55
	C399.17,71.15,399.68,70.9,400.32,70.9"/>
<path class="st4" d="M373.77,69.41c0.63,0,1.15,0.25,1.15,0.55c0,0.3-0.51,0.55-1.15,0.55c-0.63,0-1.15-0.24-1.15-0.55
	C372.62,69.65,373.14,69.41,373.77,69.41"/>
<path class="st4" d="M376.81,137.66c0.57,0,1.02-0.24,1.02-0.55c0-0.3-0.46-0.55-1.02-0.55c-0.57,0-1.03,0.24-1.03,0.55
	C375.79,137.41,376.25,137.66,376.81,137.66"/>
<path class="st1" d="M374.51,69.71c-0.19-0.09-0.45-0.14-0.74-0.14c-0.29,0-0.56,0.06-0.74,0.14c-0.15,0.07-0.25,0.16-0.25,0.24
	c0,0.08,0.09,0.17,0.25,0.24c0.19,0.09,0.45,0.14,0.74,0.14c0.29,0,0.56-0.06,0.74-0.14c0.15-0.07,0.25-0.16,0.25-0.24
	C374.76,69.87,374.66,69.78,374.51,69.71 M373.77,69.25c0.34,0,0.65,0.07,0.88,0.18c0.26,0.13,0.43,0.31,0.43,0.53
	c0,0.22-0.16,0.4-0.43,0.53c-0.23,0.11-0.54,0.18-0.88,0.18c-0.34,0-0.65-0.07-0.88-0.18c-0.26-0.13-0.43-0.31-0.43-0.53
	c0-0.22,0.16-0.4,0.43-0.53C373.12,69.32,373.43,69.25,373.77,69.25z"/>
<path class="st1" d="M377.48,137.36c-0.17,0.09-0.4,0.14-0.66,0.14c-0.26,0-0.5-0.06-0.66-0.14c-0.14-0.07-0.22-0.16-0.22-0.24
	c0-0.08,0.08-0.17,0.22-0.24c0.17-0.09,0.4-0.14,0.66-0.14c0.26,0,0.5,0.06,0.66,0.14c0.14,0.07,0.22,0.16,0.22,0.24
	C377.7,137.2,377.61,137.28,377.48,137.36 M376.81,137.82c0.3,0,0.58-0.07,0.78-0.18c0.23-0.13,0.38-0.31,0.38-0.53
	c0-0.22-0.15-0.4-0.38-0.53c-0.2-0.11-0.48-0.18-0.78-0.18c-0.3,0-0.58,0.07-0.79,0.18c-0.23,0.13-0.38,0.31-0.38,0.53
	c0,0.22,0.15,0.4,0.38,0.53C376.23,137.75,376.51,137.82,376.81,137.82z"/>
<path d="M404.58,70.8c-0.14-0.15-0.36-0.3-0.63-0.41c-0.27-0.11-0.54-0.16-0.75-0.14c-0.17,0.01-0.29,0.06-0.32,0.13
	c-0.03,0.08,0.02,0.2,0.14,0.32c0.14,0.15,0.36,0.3,0.63,0.41c0.27,0.11,0.54,0.16,0.75,0.14c0.17-0.01,0.29-0.06,0.32-0.13
	C404.75,71.04,404.7,70.92,404.58,70.8 M404.06,70.1c0.32,0.13,0.58,0.31,0.75,0.49c0.2,0.21,0.28,0.45,0.2,0.65
	c-0.08,0.2-0.3,0.31-0.59,0.33c-0.25,0.02-0.56-0.04-0.88-0.17c-0.32-0.13-0.58-0.31-0.75-0.49c-0.2-0.21-0.28-0.45-0.2-0.65
	c0.08-0.2,0.3-0.31,0.59-0.33C403.43,69.91,403.75,69.97,404.06,70.1z"/>
<path class="st1" d="M410.24,72.03l0.93-0.03l0.13,0.48l2.09,0.04l0.52,0.57c0.66,1.03,0.92,0.84,1.25,0.87
	c0.3,0.03,0.44-0.03,0.69-0.38l1.37-1.72c0.04-0.07,0.08-0.17,0.12-0.29c0.11-0.34,0.49-0.64,0.42-1.11
	c-0.06-0.45-0.25-0.88-0.67-1.13c-0.08-0.05-0.17-0.09-0.27-0.12l-3.92-0.13l-0.29,0.86l-2.12,0.11l2.58-2.15
	c1.7,0.07,5.6-0.77,5,2.52c0.07,0.52-0.01,1.06-0.14,1.44c-0.05,0.15-0.1,0.27-0.16,0.36c-0.36,0.58-0.96,1.3-1.37,1.87
	c-0.31,0.44-0.62,0.8-1.08,0.76c-0.42-0.04-1.06-0.18-1.76-1.25l-3.3-0.07L410.24,72.03z"/>
<path class="st1" d="M409.38,135.04l0.83,0.03l0.11-0.48l1.86-0.04l0.46-0.57c0.59-1.03,0.82-0.84,1.12-0.87
	c0.27-0.03,0.39,0.03,0.61,0.38l1.22,1.72c0.04,0.07,0.07,0.17,0.11,0.29c0.1,0.34,0.43,0.64,0.38,1.11
	c-0.05,0.45-0.22,0.88-0.59,1.13c-0.07,0.05-0.15,0.09-0.24,0.12l-3.5,0.13l-0.26-0.86l-1.89-0.11l2.3,2.14
	c1.52-0.07,5,0.77,4.47-2.52c0.06-0.52-0.01-1.06-0.12-1.44c-0.04-0.15-0.09-0.27-0.14-0.36c-0.32-0.58-0.85-1.3-1.23-1.87
	c-0.27-0.44-0.55-0.8-0.97-0.76c-0.38,0.04-0.95,0.18-1.57,1.25l-2.95,0.07L409.38,135.04z"/>
<path d="M416.28,68.9l-1.03,1.64c0.65,1.47-0.07,1.36-0.11,2.05c0.08-0.74,0.26-1.49-1.09-2.13l1.54-1.79L416.28,68.9z"/>
<path d="M414.78,138.16l-0.92-1.64c0.58-1.47-0.06-1.36-0.09-2.05c0.07,0.74,0.23,1.49-0.98,2.13l1.37,1.79L414.78,138.16z"/>
<path class="st1" d="M410.86,70.23c0.47-0.01,0.95,0.02,1.4,0.1c0.66,0.11,1.28,0.33,1.73,0.71c0.46,0.39,0.76,0.95,0.77,1.74
	c0,0.21-0.02,0.43-0.06,0.68l-0.31-0.05c0.04-0.22,0.05-0.43,0.05-0.62c-0.01-0.68-0.26-1.17-0.66-1.5
	c-0.41-0.34-0.97-0.54-1.58-0.64c-0.44-0.07-0.9-0.1-1.35-0.09L410.86,70.23z"/>
<path class="st1" d="M409.94,136.84c0.42,0.01,0.85-0.02,1.25-0.1c0.59-0.11,1.14-0.33,1.55-0.71c0.41-0.39,0.68-0.96,0.69-1.74
	c0-0.21-0.01-0.44-0.05-0.68l-0.28,0.05c0.03,0.22,0.05,0.43,0.05,0.62c-0.01,0.68-0.23,1.17-0.59,1.5
	c-0.36,0.34-0.87,0.54-1.41,0.64c-0.39,0.07-0.8,0.1-1.21,0.09L409.94,136.84z"/>
<path d="M379.05,69.55c-0.06-0.01-0.12-0.08-0.16-0.19l-0.01,0.04l0.1,0.22L379.05,69.55z M378.88,69.4l0.01-0.04l-0.04-0.11
	l-0.05-0.03L378.88,69.4z M382.66,69.84c-0.47,0.02-2.28,0.03-3.28-0.03c-0.22-0.01-0.42-0.03-0.56-0.05
	c-0.6-0.09-0.82-0.36-0.53-0.84c0.06-0.1,0.14-0.17,0.26-0.22l0.24,0.53l0.05,0.03c-0.07-0.24-0.05-0.54,0.13-0.51
	c0.1,0.01,0.26,0.03,0.46,0.04c0.98,0.05,2.74,0.04,3.19,0.03L382.66,69.84z"/>
<path d="M381.53,137.52c-0.06,0.01-0.11,0.08-0.15,0.19l0-0.04l0.09-0.22L381.53,137.52z M381.38,137.67l0,0.04l-0.03,0.11
	l-0.04,0.03L381.38,137.67z M384.75,137.22c-0.42-0.02-2.03-0.03-2.93,0.03c-0.2,0.01-0.37,0.03-0.5,0.05
	c-0.54,0.09-0.73,0.36-0.47,0.84c0.05,0.1,0.13,0.17,0.23,0.22l0.22-0.53l0.04-0.03c-0.06,0.24-0.05,0.54,0.12,0.51
	c0.08-0.01,0.23-0.03,0.41-0.04c0.87-0.05,2.44-0.04,2.84-0.03L384.75,137.22z"/>
<polygon class="st1" points="382.47,70.41 378.18,70.25 378.21,69.22 382.51,69.38 "/>
<polygon class="st1" points="372.29,104.11 367.99,103.94 368.03,102.91 372.32,103.08 "/>
<path class="st1" d="M372.56,71.69c0.18-0.13,0.4-0.21,0.67-0.23c0.95-0.1,2.54,0,3.57,0l0.24-1.21c0.27-0.22,0.28-0.28,0.82-0.08
	c0.13-0.31,0.2-0.51,0.3-0.8l0.23-0.62c-0.13-0.01-0.3,0-0.49,0.03c-0.22,0.03-0.63-0.02-0.87-0.03c-1.46-0.07-3.35-0.17-3.68,0.18
	c-0.15,0.63-0.29,1.1-0.44,1.57C372.79,70.88,372.67,71.25,372.56,71.69 M371.62,73.09c-0.14-0.23-0.21-0.59-0.18-1.14l0.01-0.08
	c0.15-0.67,0.31-1.17,0.46-1.67c0.15-0.48,0.3-0.97,0.44-1.59l0.02-0.07l0.04-0.07c0.53-0.95,2.87-0.84,4.66-0.75l0.73,0.03
	c0.39-0.05,0.73-0.04,0.98,0.02c0.19,0.04,0.36,0.11,0.48,0.21c0.2,0.16,0.29,0.37,0.27,0.62c-0.01,0.1-0.04,0.21-0.09,0.31
	c-0.09,0.21-0.2,0.5-0.32,0.82c-0.11,0.31-0.24,0.65-0.37,0.96c-0.48,1.16-1.13,2.16-2.17,1.8l-3.3,0c-0.09,0.01-0.16,0.05-0.2,0.1
	c-0.07,0.09-0.12,0.24-0.15,0.44l-0.05,0.36l-0.35,0.08C372.18,73.54,371.86,73.47,371.62,73.09z"/>
<path class="st1" d="M375.68,135.37c0.19,0.13,0.4,0.21,0.64,0.23c0.87,0.1,2.27,0,3.19,0l0.43,1.21c0.28,0.22,0.3,0.28,0.74,0.08
	c0.17,0.31,0.27,0.51,0.41,0.8l0.32,0.62c-0.12,0.01-0.27,0-0.45-0.03c-0.2-0.03-0.56,0.02-0.77,0.03
	c-1.29,0.07-2.96,0.17-3.32-0.18c-0.24-0.63-0.46-1.1-0.68-1.57C376.03,136.19,375.86,135.81,375.68,135.37 M374.59,133.97
	c-0.08,0.23-0.08,0.59,0.05,1.14l0.03,0.08c0.26,0.67,0.48,1.17,0.71,1.67c0.22,0.48,0.44,0.97,0.68,1.59l0.03,0.07l0.04,0.07
	c0.64,0.96,2.71,0.84,4.3,0.75l0.65-0.03c0.36,0.05,0.66,0.04,0.87-0.02c0.17-0.04,0.3-0.11,0.39-0.21c0.15-0.16,0.2-0.37,0.13-0.62
	c-0.03-0.1-0.07-0.21-0.14-0.31c-0.12-0.21-0.27-0.5-0.43-0.82c-0.16-0.31-0.33-0.65-0.5-0.96c-0.64-1.16-1.39-2.16-2.26-1.8
	l-2.94,0c-0.08-0.01-0.15-0.05-0.2-0.1c-0.08-0.09-0.15-0.24-0.21-0.44l-0.11-0.36l-0.33-0.08
	C375.01,133.52,374.73,133.59,374.59,133.97z"/>
<path class="st2" d="M432.67,49.24l0.37-0.04c0,0.43,0,0.86,0.01,1.28l1.74-0.01l0.18-1.27l0.89,0l0.14,2.53l1.15,0.02l2.4-1.43
	l0.83,0.86l-3.87,2.13l-1.29-0.02l0.01-2.37l-1.13,0.01l-0.02,1.15l-0.81,0.03l-0.09-0.85l-0.81,0.04l-0.36-0.68L432.67,49.24z"/>
<path class="st2" d="M434.04,157.99l0.4,0.11c0-0.34,0-0.28,0-0.61l1.88-0.03l0.19,1.04l0.96,0.18l0.16-1.96l1.24,0.22l3.08,0.39
	l0.65-1.12l-4.71-1.19l-1.11,0.32l0.01,1.3l-1.23-0.12l-0.01-0.45l-0.87-0.19l-0.53,0.56l-0.44-0.1l-0.39,0.46L434.04,157.99z"/>
<path class="st1" d="M428.54,158.01c-0.19-0.03-0.19-0.18-0.01-0.33c0.19-0.15,0.49-0.25,0.68-0.23c0.68,0.11,1.37,0.24,2.05,0.37
	c0.67,0.13,1.35,0.27,2.02,0.37c0.1,0.01,0.14,0.06,0.15,0.12c0,0.28,0.09,0.53,0.27,0.75c0.18,0.23,0.94,0.44,1.31,0.66l5.24-0.06
	c0.41,0.27,0.77,0.44,1.08,0.51l0.07,0.02c0.05-0.37,0.07-0.7,0.06-0.97c-0.01-0.32-0.06-0.56-0.16-0.71
	c-2.64,0.43-3.43,1.12-3.41,1.03c0.09-0.5,0.24-0.92,0.52-1.16l0.04-0.04c0.53-0.41,1.44-1.01,2.06-0.47l2.31-0.09
	c0.13,0.18-0.41,0.74-0.4,1.12c0.01,0.36-0.02,0.81-0.1,1.33c0,0.1-0.13,0.23-0.32,0.32c-0.45,0.22-0.91,0.28-1.4,0.17
	c-0.12-0.03-5.18-0.14-6.82-0.45c-0.04-0.01-0.07-0.02-0.1-0.03c-0.41-0.25-0.71-0.48-0.92-0.74c-0.19-0.24-0.29-0.49-0.31-0.78
	c-0.64-0.1-1.27-0.23-1.91-0.35C429.89,158.25,429.21,158.12,428.54,158.01"/>
<path class="st1" d="M427.51,155.43c-0.11,0.35-0.19,0.44,0.08,0.77c0.13,0.16,0.26,0.22,0.29,0.13l0.68-0.05
	c0.01-0.02,0.41-0.16,0.72-0.37L427.51,155.43z M422.33,155.22c-0.07,0.5,0.94,0.85,0.96,0.7l0.74-1.78c0-0.02-1.4-0.87-1.4-0.87
	c-0.17-0.04-2.06-0.39-2.08-0.22c-0.03,0.29-0.09,3.58,0.09,3.67c0.38,0.16,2.3,1.03,2.52,1.06c0.53,0.1,5.65,1.13,5.71,1.1
	c0.42-0.26,0.8-0.29,0.49-0.75c-0.28-0.4-2.9-1.43-3.51-1.7l0.08-1.82l-0.4-0.08l-0.1-0.15c-0.01,0.35-0.14,1.88-0.04,2.09
	c0.08,0.17,0.23,0.36,0.34,0.41l2.85,1.27l-0.12,0.07l-4.91-0.96c-0.61-0.36-1.63-0.7-2.23-1.06c0.08-0.8-0.11-1.76-0.03-2.56
	c0.41,0.11,0.8,0.35,1.2,0.46L422.33,155.22z"/>
<path class="st1" d="M410.47,152.51l-0.06,1.33l-0.26,0.14c-0.36,0.2-0.86,0.47-1.32,0.52c-0.6,0.06-1.03-0.42-2-1.01l0.09-1.39
	c-0.06-0.45-0.13-0.57,0.3-0.52c0.31,0.04,0.66,0.14,0.96,0.23l0.11,0.03l0.3,1.1c0.03,0.1,0.08,0.23,0.16,0.33
	c0.11,0.15,0.21,0.19,0.22,0.08l0.15-1.12c0.36-0.03,0.75,0.03,1.1,0.16C410.41,152.47,410.34,152.42,410.47,152.51 M410.8,154.45
	l0.35-1.47c0.02-0.09-0.06-0.63-0.17-0.79c0.02,0.65-0.04-0.07-0.99-0.44c-0.38-0.15-0.81-0.21-1.2-0.17
	c-0.03,0-0.04,0.02-0.04,0.06l-0.07,0.51l-0.12-0.44c-0.05-0.17-0.16-0.37-0.26-0.44c-0.02-0.01-0.04-0.02-0.05-0.03l-0.3-0.09
	c-0.31-0.09-0.67-0.2-0.98-0.24c-0.5-0.06-1.22-0.13-1.15,0.51l-0.05,1.76c0,0.13,0.15,0.39,0.25,0.52
	c0.04,0.05,0.39,0.33,0.42,0.35l1.57,0.52c0.34,0.49,0.74,0.62,1.15,0.58c0.48-0.05,0.98-0.33,1.35-0.53l0.28-0.15
	C410.78,154.48,410.79,154.47,410.8,154.45z"/>
<path class="st1" d="M396.01,49.53l4.1-0.04l0.09-1.03c-0.8-0.51-1.32-0.47-1.58-0.5c-0.95-0.12-1.51-0.05-2.27,0.2
	c-0.29,0.09-0.3,0.2-0.46,0.36L396.01,49.53z M393.82,50.77l0.08-0.98l0.68-0.39l0.45-1.22c0.04-0.11,0.09-0.21,0.14-0.28
	c0.21-0.27,0.52-0.46,0.89-0.58c0.77-0.25,1.85-0.25,2.81-0.14c0.96,0.12,1.82,0.36,2.13,0.6c0.06,0.05,0.11,0.1,0.13,0.16l0,0.01
	c0.04,0.09-0.01,0.32-0.1,0.52l-0.71,1.59c-0.06,0.14-0.13,0.23-0.18,0.23l-5.55,0.05l-0.28,0.61L393.82,50.77z"/>
<path class="st1" d="M391.32,150.36l4.71,0.86l0.11,0.83c-0.92,0.24-1.52,0.1-1.82,0.08c-1.1-0.1-1.74-0.27-2.61-0.62
	c-0.33-0.13-0.35-0.22-0.52-0.38L391.32,150.36z M388.8,148.94l0.09,0.79l0.78,0.44l0.51,1.05c0.04,0.09,0.1,0.18,0.16,0.24
	c0.24,0.26,0.6,0.47,1.03,0.64c0.88,0.35,2.13,0.57,3.24,0.68c1.11,0.1,2.09,0.08,2.45-0.04c0.07-0.03,0.13-0.06,0.15-0.1l0-0.01
	c0.04-0.06-0.01-0.26-0.11-0.43l-0.82-1.39c-0.07-0.12-0.15-0.21-0.21-0.22l-6.39-1.16l-0.33-0.54L388.8,148.94z"/>
<polygon points="401.09,47.91 405.9,47.99 405.66,48.77 400.85,48.69 "/>
<path d="M398.45,106.4c-0.18,0-0.37-0.17-0.42-0.38c-0.05-0.21,0.06-0.39,0.24-0.39l3.38-0.04c0.18,0,0.37,0.17,0.42,0.38
	c0.05,0.21-0.06,0.39-0.24,0.39L398.45,106.4z"/>
<path class="st1" d="M364.71,100.35l0.15,3.94c0.06,0.78,0.17,0.76,0.5,0.85l0.19,0.06l3.67,0.01c0.06-0.08,0.09-0.17,0.09-0.28
	c0-0.19-0.09-0.41-0.28-0.65l-1.07-0.02l-0.08-0.01c-0.13-0.03-0.22-0.09-0.29-0.18c-0.1-0.14-0.15-0.34-0.16-0.57
	c-0.01-0.22,0.01-0.47,0.06-0.69c0.07-0.31,0.21-0.59,0.4-0.73c0.13-0.09,0.34-0.16,0.49-0.15l1.03,0.05
	c0.06-0.11,0.14-0.82,0.14-0.95c0-0.22-0.08-0.48-0.25-0.75c-1.24-0.06-2.53-0.07-3.76-0.18c-0.28-0.02-0.54,0-0.7,0.06
	C364.78,100.17,364.73,100.24,364.71,100.35 M363.87,101.13c0.04-0.33-0.16-1.99,0.3-2.14c0.11-0.04,4.13-0.15,5.82,0.04
	c0.08,0,0.27,1.49,0.29,1.53c0.22,0.33,0.03,0.59,0.03,0.86c-0.01,0.29-0.14,0.57-0.4,0.81c-0.12,0.12-0.37,0.2-0.55,0.19l-1-0.05
	c-0.03,0.07-0.05,0.17-0.07,0.27c-0.04,0.2-0.06,0.43-0.05,0.64c0.01,0.2,0.05,0.38,0.13,0.49c0.02,0.03,0.05,0.06,0.07,0.07
	l1.14,0.03c0.09,0,0.15,0.03,0.17,0.07c0.23,0.29,0.36,0.56,0.35,0.8c-0.01,0.29,0.21,0.87-0.17,1.11
	c-0.14,0.09-1.21,0.12-1.35,0.11c-0.74-0.07-2.58,0.36-3.74,0.02c-0.7-0.21-1.01-0.91-1.06-1.59
	C363.84,103.42,363.77,101.99,363.87,101.13z"/>
<path class="st1" d="M366.15,101.82h-0.37v1.83h0.37V101.82z M365.62,101.51h0.84v2.46h-1v-2.46H365.62z"/>
<path class="st1" d="M462.26,47.59c0.11,0.11,0.2,0.22,0.29,0.35c0.38,0.58,0.5,1.34,0.23,2.38l2.65,1.2
	c0.3-0.21,0.58-0.53,0.77-0.91l0.01-0.02c0.17-0.35,0.26-0.76,0.25-1.19l-0.31-0.2c-1.16-0.74-2.79-1.79-3.51-1.62
	c-0.04,0.01-0.08,0.01-0.12,0.01L462.26,47.59z M460.25,46.67c0.09-0.05,0.2-0.06,0.31-0.02l0.13,0.04l1.82,0.08
	c1.06-0.18,2.82,0.94,4.08,1.75l0.45,0.29c0.11,0.06,0.2,0.18,0.21,0.31c0.08,0.67-0.05,1.3-0.31,1.84l-0.01,0.02
	c-0.29,0.6-0.75,1.08-1.26,1.36c-0.11,0.07-0.26,0.09-0.39,0.03l-3.18-1.44c-0.19-0.09-0.29-0.3-0.22-0.51
	c0.32-0.95,0.26-1.59-0.03-2.03c-0.26-0.4-0.74-0.67-1.33-0.88l-2.35-0.11c-0.23-0.01-0.4-0.2-0.39-0.43
	c0.01-0.23,0.2-0.4,0.43-0.39L460.25,46.67z"/>
<path class="st1" d="M482.84,68.2l0.36-1.04c0.03-0.07,0.07-0.14,0.14-0.19l0.96-0.74l-0.42-0.67c-0.11-0.15-0.11-0.37,0.02-0.52
	c0.15-0.17,0.41-0.19,0.58-0.04c0.8,0.71,1.43,1.52,1.93,2.44c0.49,0.9,0.85,1.9,1.13,3c0.31,0.63-0.1,0.95-0.53,1.28l-0.09,0.07
	l-0.2,0.18c-0.37,0.34-0.7,0.64-1.48,0.46c-0.11-0.03-0.2-0.09-0.26-0.2l-2.1-3.66C482.82,68.46,482.79,68.33,482.84,68.2
	 M483.93,67.54l-0.26,0.75l1.93,3.35c0.25,0.01,0.4-0.13,0.57-0.28l0.02-0.02c0.07-0.06,0.14-0.13,0.23-0.2l0.1-0.08
	c0.16-0.12,0.31-0.24,0.28-0.29c-0.02-0.03-0.03-0.06-0.04-0.1c-0.27-1.05-0.61-2-1.07-2.84c-0.21-0.39-0.45-0.75-0.71-1.1
	L483.93,67.54z"/>
<path class="st1" d="M493.53,97.08l0.05,0c0.14,0.01,0.35,0.15,0.48,0.3l1.65,1.92c0.06,0.07,0.1,0.14,0.09,0.18l0.05,3.71
	c0,0.02-0.22,0.42-0.23,0.43l-1.91,1.96c-0.04,0.05-0.2,0.02-0.36-0.09c-0.19-0.12-0.32-0.3-0.31-0.38l0.39-1.87l-1.32-0.03
	c-0.06,0-0.15-0.03-0.24-0.08c-0.19-0.11-0.35-0.28-0.36-0.39l-0.12-1.29c0-0.03,0.01-0.05,0.03-0.06l0.74-0.41l-0.11-1.42
	l-0.44-0.13c-0.06-0.02-0.12-0.05-0.19-0.09c-0.19-0.12-0.33-0.29-0.32-0.39l0.04-1.41C491.14,97.45,493.31,97.12,493.53,97.08
	 M493.87,98.46l-1.84-0.05l-0.02,0.71l0.19,0.06c0.16,0.05,0.37,0.2,0.47,0.35c0.03,0.05,0.05,0.09,0.05,0.12l0.14,1.77
	c0,0.03-0.01,0.05-0.03,0.06l-0.73,0.41l0.07,0.78l1.47,0.04c0.13,0,0.34,0.13,0.48,0.28c0.08,0.09,0.12,0.17,0.11,0.22l-0.18,0.88
	l0.65-1.22l-0.09-2.88L493.87,98.46z"/>
<path class="st1" d="M483.14,133.07c-0.1-0.09-0.02-0.18,0.19-0.21c0.2-0.03,0.45,0.02,0.55,0.1l2.13,1.78l2.83-4.07l0.03-1.54
	l-1.13-1.48c-0.07-0.09,0.05-0.17,0.27-0.19c0.22-0.01,0.45,0.04,0.52,0.13l1.15,1.5c0.01,0.02,0.02,0.03,0.02,0.05l-0.03,1.57
	c0,0.02,0,0.03-0.01,0.05l-3.12,4.49c-0.03,0.04-0.1,0.08-0.22,0.09c-0.2,0.03-0.45-0.02-0.55-0.1L483.14,133.07z"/>
<path class="st1" d="M485.04,131.9c-0.04,0.09-0.26,0.13-0.48,0.1c-0.22-0.03-0.37-0.12-0.33-0.21l1.38-2.7
	c0.01-0.02,0.03-0.04,0.06-0.06c0.88-0.56,1.53-0.53,1.98-0.01c0.28,0.31,0.4,0.93,0.4,1.77c0,0.01-0.01,0.03-0.01,0.04l-1.25,1.91
	c-0.05,0.08-0.28,0.12-0.5,0.09c-0.22-0.03-0.35-0.13-0.3-0.21l1.24-1.89c0-0.8-0.11-1.37-0.36-1.64c-0.06-0.07-0.21-0.03-0.47,0.13
	L485.04,131.9z"/>
<path class="st1" d="M462.69,156.28l0.13-0.19l-0.43,0.08L462.69,156.28z M467.19,153.33l-3.48,1.78c0.03,0,0.04,0.02,0.05,0.05
	c0.65,1.34,2.56,0.73,2.19,0.07c-0.02-0.03-0.01-0.1,0.04-0.19c0.09-0.17,0.27-0.35,0.41-0.41l0.96-0.41L467.19,153.33z
	 M466.6,151.47c0.14-0.07,0.19,0.01,0.11,0.17c-0.08,0.16-0.22,0.64-0.36,0.71l-2.74,1.35l0.42,0.79l3.57-1.82
	c0.1-0.05,0.15-0.04,0.16,0.03l0.53,1.35c0.02,0.09-0.39,0.27-0.55,0.42c-0.07,0.07-0.14,0.11-0.2,0.14l-0.88,0.37
	c0.77,3.36-3.04,2.72-3.44,1.04l-0.43,0.61c-0.12,0.18-0.31,0.33-0.42,0.34c-0.02,0-0.03,0-0.04-0.01l-1.42-0.55
	c-0.08-0.03-0.02-0.19,0.12-0.37c0.12-0.15,0.27-0.25,0.36-0.26l1.87-0.35c0.05-0.07,0.11-0.14,0.17-0.2l0.1-0.08
	c-0.02,0-0.04-0.01-0.05-0.03l-0.76-1.45c-0.02-0.03-0.01-0.09,0.03-0.17c0.08-0.16,0.26-0.35,0.4-0.42L466.6,151.47z"/>
<path class="st1" d="M415.25,138.12c5.24,8.28,12.98,16.07,22.43,19.18l-0.26,0.78c-5.13-1.69-10.95-5.2-16.43-11.09
	c-1.49-1.24-4.12-4.78-6.5-8.72c0.13,0,0.49,0.02,0.6-0.08h0.08L415.25,138.12z M409.52,126.93c1.02,2.48,2.11,4.78,3.26,6.93h-0.34
	c0,0.08-0.16,0.09-0.29,0.18C410.77,131.35,409.76,128.78,409.52,126.93z"/>
<polygon class="st5" points="404.52,50.83 407.59,49.73 411.06,48.82 413.34,49.02 413.54,50.85 412.81,51.99 411.01,52.43 
	404.86,52.33 "/>
<polygon class="st5" points="382.95,68.03 387.93,67.98 388.55,68.75 389,68.4 390.93,68.91 392.15,69.92 391.95,72.05 
	391.22,73.39 389.42,73.9 388.08,73.6 387.61,72.98 386.79,73.62 383.1,73.51 381.29,70.61 "/>
<path class="st5" d="M375.92,102.35c1.06-2.21,3.89-1.47,4.06-0.79c1.69-1.74,3.71,0.11,3.86,2.16c0.01,2.54-2.68,3.64-3.85,2.38
	l-0.11,0.03c-0.84,0.53-2.16,1.24-3.69-0.84l-2.9-0.03l-0.15-2.83L375.92,102.35z"/>
<path class="st5" d="M398.78,103.18l-3.1-0.28c-1.38-1.43-3.9-0.76-4.76,0.87c-0.08,0.14-2.82-0.24-2.8,0.2
	c0,0.39-0.08,1.74,0.06,2.07c0.02,0.05,2.73,0.11,2.76,0.15c0.84,1.7,3.35,2.39,4.31,1.35l0.51-0.18l2.85,0.1l0.14-1.05l2.46,0.09
	l0.15-2.83l-2.66,0.04L398.78,103.18z"/>
<polygon class="st5" points="397.4,68.51 403.66,68.45 404.55,69.19 405.5,69.2 409.5,69.31 409.04,71.19 407.21,72.93 
	405.97,74.27 404.68,74.78 403.34,74.48 402.17,73.4 400.45,74.45 399.58,74.43 397.04,72.36 396.19,71.05 396.14,69.46 "/>
<polygon class="st5" points="405.83,138.16 402.57,138.48 400.29,138.57 398.01,138.53 396.58,137.44 396.93,135.77 398.33,134.21 
	399.27,133.02 400.26,132.56 401.29,132.83 402.18,133.79 403.39,132.41 405.15,132.37 407.22,134.71 406.75,135.89 406.8,137.31 
	"/>
<polygon class="st5" points="385.59,139.03 389.74,138.74 390.1,138.38 390.64,138.47 391.94,138.13 392.85,136.85 392.27,135.13 
	391.37,133.95 389.93,133.34 388.24,133.57 388.01,134.47 386.66,133.45 384.11,133.52 383.48,133.95 383.23,135.76 383.37,136.08 
	"/>
<polygon class="st5" points="419.97,48.57 422.94,48.15 427.05,47.93 431.75,47.98 432.38,47.35 438.72,47.26 438.77,48.2 
	433.25,49.85 429.89,51.14 428.14,51.17 427.41,52.31 426.05,52.82 424.59,52.87 423.78,51.93 422.36,52.67 419.91,52.65 "/>
<path class="st1" d="M410.15,48.29l-3.83,0.13l-0.62,0.85l0.01,2.11l1.52,0l0.02-1.12l0.34-0.52l-0.03,1.76
	c0,0.07-0.01,0.17-0.05,0.28c-0.07,0.22-0.18,0.39-0.24,0.39l-2.33,0c-0.03,0-0.05-0.04-0.05-0.11l-0.04-2.58l0-0.1
	c0.02-0.19,0.12-0.43,0.21-0.53l1.15-1.31c0.03-0.04,0.06-0.06,0.09-0.06l4.82-0.11L410.15,48.29z"/>
<path class="st1" d="M412.66,51.07l-0.05-1.7l-0.22-0.23c-0.31-0.33-0.75-0.79-1.15-0.95c-0.52-0.22-0.89,0.31-1.74,0.83l0.08,1.78
	c-0.05,0.56-0.11,0.69,0.26,0.73c0.27,0.02,0.57-0.03,0.83-0.08l0.1-0.02l0.26-1.33c0.02-0.13,0.07-0.28,0.14-0.39
	c0.09-0.17,0.18-0.19,0.19-0.06l0.13,1.46c0.31,0.12,0.65,0.13,0.95,0.04C412.6,51.11,412.55,51.16,412.66,51.07 M412.94,48.69
	l0.3,1.94c0.02,0.12-0.05,0.79-0.15,0.97c0.02-0.83-0.03,0.08-0.86,0.34c-0.33,0.1-0.7,0.09-1.04-0.05
	c-0.02-0.01-0.03-0.04-0.04-0.09l-0.06-0.67l-0.1,0.54c-0.04,0.21-0.14,0.43-0.23,0.5c-0.02,0.01-0.03,0.02-0.05,0.02l-0.26,0.04
	c-0.27,0.05-0.58,0.1-0.86,0.08c-0.44-0.04-1.06-0.1-1-0.91l-0.04-2.25c0-0.16,0.13-0.47,0.22-0.61c0.03-0.05,0.34-0.34,0.36-0.35
	l1.37-0.31c0.29-0.55,0.64-0.63,1-0.48c0.41,0.17,0.85,0.64,1.17,0.97l0.24,0.25C412.93,48.64,412.94,48.66,412.94,48.69z"/>
<path d="M407.6,49.97l0.78,1.44h1.07l-0.24,0.78h-1.09c-0.01,0-0.03-0.01-0.04-0.03l-0.79-1.46L407.6,49.97z"/>
<path class="st1" d="M421.81,49.98c-0.01-0.13,0.08-0.37,0.2-0.53c0.13-0.16,0.67-0.26,0.69-0.13c0.23,0.81,0.46,1.62,0.68,2.43
	c0.01,0.13-0.67,0.37-0.94,0.5c-0.07,0.09-0.31,0.27-0.36,0.27c-0.54,0.05-1.07-0.11-1.62-0.06c-0.05,0-0.3-0.1-0.31-0.16
	c-0.09-1.22,0.05-2.37-0.04-3.59c0-0.03,0.08-1.04,0.12-1.05c0.76-0.24,1.52-0.49,2.28-0.73c0.02-0.01,0.04-0.02,0.06-0.02
	c1.75-0.02,3.5-0.04,5.25-0.06c0.02,0,0.03,0.01,0.04,0.02c0.18,0.2,0.36,0.4,0.55,0.6c0.06,0.06,0.02,0.28-0.09,0.47
	c-0.08,0.14-0.17,0.24-0.24,0.26c-1,0.36-2.01,0.71-3.01,1.07c0.03,0.93,0.06,1.86,0.09,2.79c0.55-0.07,1.11-0.15,1.66-0.22
	c-0.1-0.45-0.2-0.9-0.3-1.35c-0.03-0.12,0.05-0.35,0.18-0.52c0.12-0.17,0.24-0.22,0.27-0.1c0.21,0.07,0.42,0.15,0.63,0.22
	c0.01,0.06,2.38,1.7-0.24,2.04c-0.08,0.21-0.23,0.38-0.32,0.4c-0.75,0.1-1.5,0.2-2.24,0.3c-0.05,0.01-0.08-0.03-0.08-0.1
	c-0.04-1.14-0.07-2.27-0.11-3.41c0-0.05,0.01-0.12,0.04-0.2c0.07-0.2,0.21-0.4,0.31-0.43c0.88-0.31,1.76-0.63,2.64-0.94
	c-0.04-0.04-0.07-0.08-0.11-0.12c-1.73,0.02-2.82,0.03-4.55,0.05c-0.56,0.31-1.51,0.5-2.07,0.81c0.08,1.04-0.1,2.21-0.02,3.25
	c0.38-0.04,0.74-0.26,1.12-0.3C421.9,50.88,421.86,50.52,421.81,49.98"/>
<path class="st1" d="M427.59,48.63c-0.21-0.01-0.26-0.14-0.1-0.3c0.16-0.16,0.46-0.28,0.68-0.27c0.61,0.03,1.23,0.02,1.86,0.01
	l0.03,0c0.39,0,0.77-0.01,1.16-0.01c0.05-0.23,0.14-0.43,0.26-0.61c0.23-0.34,0.58-0.62,1.04-0.89c0.16-0.09,0.35-0.14,0.49-0.14
	l3.91,0c0.46-0.26,0.89-0.4,1.29-0.42c0.42-0.03,0.76,0.09,1.03,0.34c0.02,0.02,0.03,0.04,0.03,0.06c0.07,0.69,0.11,1.27,0.1,1.72
	c-0.01,0.47-0.08,0.82-0.21,1.03c-0.04,0.06-0.11,0.12-0.19,0.18l-0.7,0.45c-0.79,0.71-1.31,0.72-1.66,0.26
	c-0.21-0.27-0.32-0.79-0.4-1.41c-0.02-0.12,0.19-0.3,0.45-0.4c0.27-0.09,0.5-0.07,0.51,0.05c0.07,0.6,0.18,1.08,0.36,1.32
	c0.03,0.04,0.02,0.09,0.03,0.08c0.03-0.03,0.07-0.06,0.11-0.09l0.62-0.4c0.06-0.16,0.1-0.42,0.11-0.77
	c0.01-0.43-0.02-0.99-0.09-1.66c-0.17-0.15-0.36-0.22-0.55-0.21c-0.14,0.01-0.31,0.08-0.53,0.22l-1.19,1.05l-0.73-0.07l0.87-0.77
	h-3.44c-0.15,0.11-0.27,0.23-0.36,0.36c-0.15,0.23-0.23,0.5-0.23,0.86c0,0.05-0.03,0.11-0.1,0.17c-0.16,0.16-0.46,0.28-0.68,0.27
	c-0.61-0.03-1.22-0.02-1.83-0.01l-0.03,0C428.88,48.65,428.24,48.65,427.59,48.63"/>
<path class="st1" d="M386.83,70.96l-0.3-0.44c-0.49-0.02-0.94,0-1.38,0.01c-0.36,0.01-0.72,0.02-1.1,0.02l0.07,0.31
	c0.15-0.03,0.3-0.08,0.45-0.13c0.32-0.11,0.63-0.22,1.06-0.2l0.08,0.01C386.14,70.66,386.53,70.8,386.83,70.96 M382.64,69.64
	c-0.09,0.41-0.12,0.56,0,0.86l0.06,0.13c0.34,0.71,0.92,1.95,1.12,1.95c0.41-0.03,0.79-0.02,1.18-0.01
	c0.34,0.01,0.67,0.01,1.03-0.01c0.33-0.17,0.55-0.32,0.66-0.46l0.01-0.02c0.04-0.05,0.05-0.09,0.05-0.11
	c-0.01-0.04-0.05-0.09-0.13-0.15c-0.22-0.18-0.61-0.34-1.1-0.47c-0.25,0-0.48,0.08-0.7,0.16c-0.31,0.11-0.62,0.22-1.04,0.2
	c-0.18,0-0.34-0.11-0.39-0.29c-0.05-0.16-0.1-0.39-0.15-0.63c-0.04-0.21-0.09-0.42-0.13-0.55c-0.01-0.04-0.02-0.09-0.02-0.14
	c0.01-0.23,0.2-0.4,0.43-0.39c0.57,0.03,1.08,0.01,1.58,0c0.52-0.01,1.05-0.03,1.64,0c0.13,0.01,0.25,0.07,0.32,0.18l1.76,2.59
	c0.82,0.13,1.42,0.05,1.78-0.26c0.35-0.31,0.5-0.9,0.43-1.77l-0.58-0.46c-0.87-0.33-1.3-0.45-1.34-0.37
	c-0.07,0.14,0.22,0.64,0.84,1.45c0.12,0.16,0.11,0.38-0.03,0.53c-0.16,0.16-0.42,0.17-0.58,0.01l-1.26-1.2
	c-0.06-0.06-0.11-0.14-0.12-0.23l-0.02-0.15c-0.06-0.37-0.12-0.8-0.53-0.85l-0.78-0.03c-1.64-0.07-3.8-0.16-3.94,0.17L382.64,69.64z
	 M381.89,70.83c-0.24-0.55-0.19-0.76-0.05-1.37l0.07-0.32l0.02-0.08c0.35-0.9,2.85-0.8,4.75-0.72l0.82,0.03
	c0.59,0.06,0.89,0.33,1.05,0.68c0.36-0.31,1.1-0.26,2.28,0.19c0.04,0.02,0.07,0.04,0.11,0.06l0.77,0.6
	c0.09,0.07,0.14,0.17,0.15,0.28c0.14,1.26-0.1,2.13-0.68,2.65c-0.59,0.52-1.48,0.65-2.65,0.42c-0.12-0.02-0.22-0.1-0.28-0.19
	l-0.67-0.99c-0.02,0.17-0.09,0.33-0.21,0.5l-0.03,0.03c-0.2,0.24-0.53,0.49-1.02,0.72c-0.05,0.02-0.1,0.04-0.15,0.04
	c-0.41,0.03-0.8,0.02-1.18,0.01c-0.36-0.01-0.72-0.01-1.11,0.01l-0.04,0c-0.74-0.01-1.46-1.54-1.88-2.42L381.89,70.83z"/>
<path class="st1" d="M387.72,136.1l-0.14,0.44c-0.43,0.02-0.83,0-1.23-0.01c-0.32-0.01-0.65-0.02-0.98-0.02l-0.03-0.31
	c0.15,0.03,0.29,0.08,0.44,0.13c0.31,0.11,0.63,0.22,1,0.2l0.07-0.01C387.2,136.41,387.5,136.27,387.72,136.1 M384.35,137.43
	c-0.2-0.41-0.27-0.56-0.24-0.86l0.02-0.13c0.1-0.71,0.28-1.95,0.45-1.95c0.37,0.03,0.71,0.02,1.06,0.01c0.3-0.01,0.6-0.01,0.93,0.01
	c0.34,0.17,0.58,0.32,0.72,0.46l0.02,0.02c0.05,0.05,0.07,0.09,0.07,0.11c0,0.04-0.02,0.09-0.07,0.15
	c-0.14,0.18-0.45,0.34-0.85,0.47c-0.22,0-0.45-0.08-0.67-0.16c-0.31-0.11-0.62-0.22-0.98-0.2c-0.16,0-0.27,0.11-0.27,0.29
	c0,0.16,0.02,0.39,0.05,0.63c0.02,0.21,0.04,0.42,0.04,0.55c0,0.04,0.01,0.09,0.02,0.14c0.07,0.23,0.29,0.4,0.49,0.39
	c0.5-0.03,0.96-0.01,1.42,0c0.47,0.01,0.94,0.03,1.46,0c0.11-0.01,0.2-0.07,0.24-0.18l0.84-2.59c0.7-0.13,1.26-0.05,1.66,0.26
	c0.4,0.31,0.7,0.9,0.88,1.77l-0.39,0.46c-0.68,0.33-1.03,0.45-1.09,0.37c-0.1-0.14,0.02-0.64,0.34-1.45
	c0.06-0.16-0.01-0.38-0.18-0.53c-0.19-0.17-0.42-0.17-0.52-0.01l-0.78,1.2c-0.04,0.06-0.06,0.14-0.04,0.23l0.02,0.15
	c0.05,0.37,0.11,0.8-0.24,0.85l-0.68,0.03c-1.45,0.07-3.35,0.16-3.57-0.17L384.35,137.43z M383.35,136.24
	c-0.06,0.55,0.05,0.76,0.34,1.37l0.15,0.32l0.04,0.08c0.56,0.9,2.77,0.8,4.45,0.72l0.72-0.03c0.51-0.06,0.7-0.33,0.75-0.68
	c0.41,0.31,1.06,0.26,1.98-0.19c0.03-0.02,0.06-0.04,0.08-0.06l0.51-0.6c0.06-0.07,0.08-0.17,0.06-0.28
	c-0.23-1.26-0.69-2.13-1.36-2.65c-0.67-0.52-1.5-0.65-2.48-0.42c-0.1,0.02-0.17,0.1-0.19,0.19l-0.32,0.99
	c-0.06-0.17-0.17-0.33-0.33-0.5l-0.03-0.03c-0.24-0.24-0.61-0.49-1.11-0.72c-0.05-0.02-0.1-0.04-0.15-0.04
	c-0.37-0.03-0.72-0.02-1.06-0.01c-0.32,0.01-0.64,0.01-1-0.01l-0.03,0c-0.66,0.01-0.87,1.54-1,2.42L383.35,136.24z"/>
<polygon class="st1" points="384.58,136.65 380.75,136.81 380.78,137.84 384.62,137.68 "/>
<path class="st1" d="M402.03,69.65c-0.92-0.02-2.11,0.03-3-0.06c-0.52-0.07-0.99-0.01-1.33,0.15c-0.18,0.08-0.32,0.19-0.39,0.33
	c-0.07,0.12-0.09,0.27-0.05,0.45c0.07,0.29,0.28,0.64,0.69,1.05l1.56,1.34l0.04,0.06c0.27,0.45,0.72,0.43,1.09,0.21
	c0.21-0.13,0.41-0.31,0.54-0.51c0.12-0.19,0.2-0.38,0.19-0.54c-0.01-0.32-0.42-0.58-1.51-0.53l-0.04-0.82
	c1.7-0.08,2.34,0.56,2.37,1.32c0.01,0.35-0.11,0.72-0.33,1.04c-0.2,0.3-0.49,0.58-0.81,0.76c-0.73,0.43-1.62,0.45-2.18-0.44
	l-1.51-1.29c-0.53-0.53-0.81-1.02-0.91-1.45c-0.09-0.39-0.03-0.75,0.14-1.04c0.16-0.28,0.43-0.51,0.76-0.66
	c0.48-0.22,1.1-0.31,1.77-0.22l4.71,0.18l0.86,0.88L402.03,69.65z"/>
<path class="st1" d="M402.21,72.02c0.51,0.38,1.69,1.18,2.07,1.58c0.15,0.16,0.62-0.07,1.1-0.38c0.34-0.23,0.67-0.52,0.9-0.79
	l0.21-0.26c-0.1-0.07-0.18-0.17-0.25-0.3c-0.1-0.19-0.17-0.49-0.19-0.8c-0.01-0.32,0.04-0.66,0.2-0.94
	c0.23-0.42,0.66-0.69,1.37-0.58l3.05,0.03l-0.01,0.82c-0.75-0.01-2.53,0.07-3.16-0.04c-0.3-0.05-0.46,0.03-0.53,0.16
	c-0.08,0.13-0.1,0.32-0.09,0.51c0.01,0.16,0.04,0.31,0.08,0.41c0.24,0.07,0.37,0.23,0.42,0.46c0.05,0.29-0.14,0.69-0.47,1.07
	c-0.28,0.32-0.66,0.66-1.06,0.93c-0.76,0.51-1.61,0.78-2.12,0.3l-2.01-1.52L402.21,72.02z"/>
<path class="st1" d="M401.06,71.2c-0.19-0.09-0.45-0.14-0.74-0.14c-0.29,0-0.56,0.06-0.74,0.14c-0.15,0.07-0.25,0.16-0.25,0.24
	c0,0.08,0.09,0.17,0.25,0.24c0.19,0.09,0.45,0.14,0.74,0.14c0.29,0,0.56-0.06,0.74-0.14c0.15-0.07,0.25-0.16,0.25-0.24
	C401.31,71.36,401.21,71.28,401.06,71.2 M400.32,70.74c0.34,0,0.65,0.07,0.88,0.18c0.26,0.13,0.43,0.31,0.43,0.53
	c0,0.22-0.16,0.4-0.43,0.53c-0.23,0.11-0.54,0.18-0.88,0.18c-0.34,0-0.65-0.07-0.88-0.18c-0.26-0.13-0.43-0.31-0.43-0.53
	c0-0.22,0.16-0.4,0.43-0.53C399.66,70.81,399.98,70.74,400.32,70.74z"/>
<path class="st2" d="M404.01,70.24c0.59,0.24,0.97,0.66,0.86,0.94c-0.11,0.28-0.68,0.32-1.27,0.08c-0.59-0.24-0.97-0.66-0.86-0.94
	C402.85,70.04,403.42,70.01,404.01,70.24"/>
<polygon points="407.22,71.8 410.49,71.73 410.43,72.45 407.21,72.28 "/>
<path class="st1" d="M376.98,102.91c-0.06,0.22-0.28,0.35-0.5,0.3c-0.22-0.06-0.35-0.28-0.3-0.5c0.2-0.77,0.75-1.24,1.4-1.46
	c0.33-0.11,0.7-0.15,1.04-0.11c0.35,0.03,0.69,0.13,0.98,0.3c0.14,0.08,0.27,0.18,0.38,0.29c0.16-0.19,0.37-0.33,0.6-0.42
	c0.28-0.1,0.59-0.13,0.9-0.09c0.3,0.04,0.61,0.15,0.9,0.33c0.75,0.47,1.34,1.4,1.18,2.76c-0.09,0.82-0.63,1.44-1.28,1.79
	c-0.3,0.16-0.62,0.26-0.94,0.29c-0.33,0.03-0.66-0.01-0.94-0.14l-0.03-0.01c-0.18-0.08-0.33-0.2-0.46-0.35
	c-0.19,0.2-0.4,0.35-0.63,0.45c-0.25,0.11-0.52,0.17-0.79,0.17c-0.27,0-0.54-0.05-0.8-0.16c-0.5-0.21-0.95-0.64-1.25-1.29
	c-0.09-0.21,0-0.45,0.2-0.55c0.21-0.09,0.45,0,0.55,0.2c0.2,0.45,0.5,0.74,0.82,0.88c0.15,0.07,0.31,0.1,0.47,0.1
	c0.15,0,0.31-0.03,0.45-0.1c0.27-0.12,0.5-0.36,0.65-0.7c0.05-0.12,0.17-0.22,0.31-0.24c0.22-0.04,0.44,0.11,0.47,0.34
	c0.04,0.26,0.18,0.42,0.35,0.51l0.02,0.01c0.15,0.07,0.33,0.09,0.52,0.07c0.21-0.02,0.43-0.09,0.63-0.2
	c0.43-0.23,0.78-0.63,0.84-1.15c0.11-0.98-0.28-1.64-0.8-1.96c-0.18-0.11-0.38-0.19-0.57-0.21c-0.18-0.02-0.35-0.01-0.5,0.05
	c-0.25,0.1-0.44,0.34-0.45,0.73c0,0.22-0.18,0.4-0.4,0.4c-0.23,0-0.42-0.18-0.42-0.4c-0.01-0.3-0.18-0.52-0.42-0.67
	c-0.18-0.11-0.4-0.17-0.64-0.19c-0.24-0.02-0.49,0-0.71,0.08C377.44,102.16,377.1,102.45,376.98,102.91"/>
<path d="M391.13,106.03c0.4,1.1,1.97,2.01,3.07,1.43l0-1.25c-0.17,0.98-1.49,0.56-1.98,0.04
	C391.85,106.32,391.43,106.25,391.13,106.03 M393.99,102.55c-1.14-0.43-2.39,0.39-2.81,1.47c0.28-0.19,0.71-0.25,1.05-0.18
	c0.33-0.4,0.95-0.71,1.47-0.52L393.99,102.55z"/>
<path class="st1" d="M395.78,106.72c-0.58,0.71-1.82,1.22-2.69,0.76l0-1.25c0.13,0.73,0.94,0.67,1.46,0.42
	C394.86,106.78,395.46,106.78,395.78,106.72 M393.3,102.56c1-0.38,2.13,0.23,2.64,1.11h-0.32v0c-0.16,0-0.47,0.05-0.62,0.11
	c-0.34-0.37-0.92-0.63-1.41-0.45L393.3,102.56z"/>
<path class="st1" d="M373.06,103.45l0.01,0.77l6.36,0.1l-0.02-0.97L373.06,103.45z M372.55,103l0.01-0.06
	c-0.02-0.13,0.01-0.22,0.08-0.22l6.86-0.11c0.04,0,0.1,0.03,0.16,0.08c0.14,0.13,0.26,0.36,0.26,0.52l0.03,1.72
	c0,0.09-0.03,0.15-0.1,0.15l-6.86-0.11c-0.04,0-0.1-0.03-0.15-0.08c-0.14-0.12-0.26-0.36-0.26-0.52L372.55,103z"/>
<path class="st1" d="M393.13,102.8c0.01-0.2,0.16-0.32,0.35-0.26c0.19,0.06,0.34,0.28,0.33,0.48l-0.04,1.34
	c0,0.17-0.12,0.28-0.27,0.27h-4.6l-0.02,0.62l4.54,0.2c0.18,0.01,0.37,0.19,0.41,0.4l0.01,0.1l-0.05,1.35
	c-0.01,0.2-0.17,0.32-0.36,0.25c-0.19-0.06-0.34-0.28-0.33-0.48l0.04-0.87l-4.54-0.2l-0.09-0.02c-0.19-0.06-0.34-0.28-0.33-0.48
	l0.05-1.37c0.01-0.15,0.11-0.27,0.25-0.27h4.62L393.13,102.8z"/>
<path class="st1" d="M395.37,106.25l2.49,0.17l0.12-2.33h-2.57L395.37,106.25z M398.25,107.21l-3.16-0.22
	c-0.19-0.01-0.37-0.2-0.41-0.41l-0.01-0.08l0.05-2.9c0-0.18,0.12-0.29,0.28-0.28h3.25c0.18,0,0.37,0.17,0.42,0.38
	c0.01,0.04,0.01,0.08,0.01,0.12l-0.16,3.12C398.52,107.12,398.4,107.22,398.25,107.21z"/>
<path class="st1" d="M398.85,104.75c-0.18,0-0.37-0.18-0.42-0.39c-0.05-0.21,0.06-0.38,0.25-0.38l7.93,0.11
	c0.18,0,0.37,0.18,0.42,0.39c0.01,0.05,0.01,0.09,0.01,0.13l-0.07,2.37c0,0.17-0.12,0.28-0.26,0.27l-2.57-0.09
	c-0.18-0.01-0.37-0.18-0.41-0.4c-0.01-0.04-0.01-0.07-0.01-0.1l-0.04-1.51c-0.01-0.21,0.14-0.33,0.33-0.29
	c0.19,0.05,0.35,0.26,0.35,0.46l0.03,1.08l1.91,0.07l0.05-1.63L398.85,104.75z"/>
<path class="st1" d="M402.87,103.54c-0.18,0-0.37-0.17-0.42-0.38c-0.05-0.21,0.05-0.39,0.24-0.39l4.65-0.08
	c0.27,0.01,0.51,0.06,0.82,0.27c0.28,0.19,0.59,0.5,1.01,1.03c0.08,0.1,0.12,0.23,0.11,0.33l-0.19,3.75
	c-0.01,0.12-0.07,0.21-0.16,0.25l-1.2,0.48c-0.03,0.01-0.06,0.02-0.09,0.02l-3.99,0.09c-0.12,0-0.24-0.07-0.33-0.17l-2.02-2.54
	c-0.14-0.18-0.15-0.42-0.03-0.53c0.13-0.12,0.35-0.07,0.49,0.11l1.88,2.36l3.76-0.09l1.01-0.4l0.17-3.39
	c-0.28-0.34-0.48-0.55-0.65-0.66c-0.15-0.1-0.28-0.13-0.43-0.13L402.87,103.54z"/>
<path class="st1" d="M402.05,137.42c-0.82,0.02-1.89-0.03-2.67,0.06c-0.47,0.07-0.89,0.01-1.19-0.15c-0.16-0.08-0.28-0.19-0.35-0.33
	c-0.06-0.12-0.08-0.27-0.04-0.45c0.06-0.29,0.25-0.64,0.62-1.05l1.39-1.34l0.03-0.06c0.24-0.45,0.64-0.43,0.98-0.21
	c0.19,0.13,0.36,0.31,0.49,0.51c0.11,0.19,0.18,0.38,0.17,0.54c-0.01,0.32-0.37,0.58-1.35,0.53l-0.03,0.82
	c1.52,0.08,2.09-0.56,2.12-1.32c0.01-0.35-0.1-0.72-0.29-1.04c-0.18-0.3-0.44-0.58-0.73-0.76c-0.65-0.43-1.44-0.45-1.95,0.44
	l-1.35,1.29c-0.47,0.53-0.72,1.02-0.81,1.45c-0.08,0.39-0.03,0.75,0.12,1.04c0.15,0.28,0.38,0.51,0.68,0.66
	c0.42,0.22,0.99,0.31,1.58,0.22l4.2-0.18l0.77-0.88L402.05,137.42z"/>
<path class="st1" d="M402.21,135.04c0.45-0.38,1.51-1.18,1.85-1.58c0.13-0.16,0.56,0.07,0.98,0.38c0.31,0.23,0.6,0.52,0.81,0.79
	l0.19,0.26c-0.09,0.07-0.16,0.17-0.22,0.3c-0.09,0.19-0.16,0.49-0.17,0.8c-0.01,0.32,0.04,0.66,0.18,0.94
	c0.21,0.42,0.59,0.69,1.22,0.58l2.72-0.03l-0.01-0.82c-0.67,0.01-2.26-0.07-2.82,0.04c-0.27,0.05-0.41-0.03-0.48-0.16
	c-0.07-0.13-0.09-0.32-0.08-0.51c0.01-0.16,0.03-0.31,0.07-0.41c0.21-0.07,0.33-0.23,0.37-0.46c0.05-0.29-0.13-0.69-0.42-1.07
	c-0.25-0.32-0.59-0.66-0.95-0.93c-0.68-0.51-1.44-0.78-1.89-0.3l-1.79,1.52L402.21,135.04z"/>
<path class="st4" d="M400.52,136.16c0.57,0,1.02-0.24,1.02-0.55c0-0.3-0.46-0.55-1.02-0.55c-0.57,0-1.03,0.24-1.03,0.55
	C399.49,135.92,399.95,136.16,400.52,136.16"/>
<path class="st1" d="M401.18,135.86c-0.17,0.09-0.4,0.14-0.66,0.14c-0.26,0-0.5-0.06-0.66-0.14c-0.14-0.07-0.22-0.16-0.22-0.24
	c0-0.08,0.08-0.17,0.22-0.24c0.17-0.09,0.4-0.14,0.66-0.14c0.26,0,0.5,0.06,0.66,0.14c0.14,0.07,0.22,0.16,0.22,0.24
	C401.4,135.7,401.32,135.79,401.18,135.86 M400.52,136.32c0.3,0,0.58-0.07,0.79-0.18c0.23-0.12,0.38-0.31,0.38-0.53
	c0-0.22-0.15-0.4-0.38-0.53c-0.2-0.11-0.48-0.18-0.79-0.18c-0.3,0-0.58,0.07-0.79,0.18c-0.23,0.12-0.38,0.31-0.38,0.53
	c0,0.22,0.15,0.4,0.38,0.53C399.94,136.25,400.22,136.32,400.52,136.32z"/>
<path class="st4" d="M403.81,136.82c0.53-0.24,0.87-0.66,0.77-0.94c-0.1-0.28-0.61-0.32-1.13-0.08c-0.52,0.24-0.87,0.66-0.77,0.94
	C402.78,137.02,403.29,137.06,403.81,136.82"/>
<path d="M404.33,136.26c-0.13,0.15-0.33,0.3-0.57,0.41c-0.24,0.11-0.48,0.16-0.67,0.14c-0.15-0.01-0.26-0.06-0.29-0.13
	c-0.03-0.08,0.02-0.2,0.12-0.32c0.13-0.15,0.33-0.3,0.57-0.41c0.24-0.11,0.48-0.16,0.67-0.14c0.15,0.01,0.26,0.06,0.29,0.13
	C404.48,136.02,404.43,136.14,404.33,136.26 M403.87,136.97c0.28-0.13,0.52-0.31,0.67-0.49c0.18-0.21,0.25-0.45,0.18-0.65
	c-0.07-0.2-0.27-0.31-0.53-0.33c-0.22-0.02-0.5,0.04-0.79,0.17c-0.28,0.13-0.52,0.31-0.67,0.49c-0.18,0.21-0.25,0.45-0.18,0.65
	c0.07,0.2,0.27,0.31,0.53,0.33C403.3,137.15,403.58,137.1,403.87,136.97z"/>
<polygon points="406.83,135.04 409.6,135.08 409.56,134.61 406.82,134.72 "/>
<path class="st1" d="M407.59,154.19l-4.41-0.87l-0.72-0.79l0.01-1.66l1.75,0.31l0.02,0.89l0.4,0.48l-0.03-1.39
	c0-0.06-0.02-0.14-0.05-0.23c-0.08-0.18-0.2-0.34-0.28-0.36l-2.68-0.47c-0.04-0.01-0.06,0.02-0.06,0.08l-0.05,2.02l0.01,0.08
	c0.03,0.15,0.14,0.36,0.24,0.46l1.32,1.26c0.04,0.04,0.07,0.06,0.1,0.07l5.54,1.06L407.59,154.19z"/>
<path class="st1" d="M404.66,152.36l0.89-0.98l1.23,0.22l-0.27-0.67l-1.26-0.22c-0.02,0-0.03,0-0.04,0.01l-0.91,0.99L404.66,152.36z
	"/>
<polygon class="st1" points="397.16,152.66 402.69,153.57 402.42,152.9 396.89,152 "/>
</svg>
